<?xml version="1.0" standalone="no"?>
<!DOCTYPE svg PUBLIC "-//W3C//DTD SVG 20010904//EN"
 "http://www.w3.org/TR/2001/REC-SVG-20010904/DTD/svg10.dtd">
<svg version="1.0" xmlns="http://www.w3.org/2000/svg"
 width="400.000000pt" height="400.000000pt" viewBox="0 0 400.000000 400.000000"
 preserveAspectRatio="xMidYMid meet">
<metadata>
Created by potrace 1.14, written by Peter Selinger 2001-2017
</metadata>
<g transform="translate(0.000000,400.000000) scale(0.100000,-0.100000)"
fill="#000000" stroke="none">
<path d="M2475 3491 c-3 -5 -2 -12 3 -15 5 -3 9 1 9 9 0 17 -3 19 -12 6z"/>
<path d="M1860 3364 c0 -5 -12 -10 -27 -10 -89 -3 -242 -14 -268 -19 -16 -3
-57 -6 -90 -7 -33 -2 -62 -6 -65 -10 -3 -4 -31 -9 -63 -10 -31 -2 -57 -6 -57
-9 0 -9 -151 -30 -162 -22 -7 4 -8 1 -3 -7 6 -10 1 -12 -18 -8 -15 3 -28 2
-29 -3 -2 -4 -16 -9 -33 -12 -16 -3 -52 -10 -80 -17 -27 -7 -54 -13 -60 -14
-5 -1 -14 -4 -20 -7 -5 -4 -22 -6 -37 -5 -14 1 -24 -2 -22 -6 3 -4 0 -8 -6 -8
-7 0 -36 -7 -66 -16 -49 -14 -54 -18 -60 -50 -3 -18 -9 -32 -13 -30 -3 2 -6
-9 -7 -25 -1 -23 3 -28 15 -25 9 2 30 7 46 10 36 8 58 12 110 25 22 6 41 9 42
7 2 -1 -23 -14 -54 -28 -56 -24 -59 -26 -77 -84 -11 -32 -24 -65 -29 -71 -5
-7 -6 -13 -2 -13 5 0 0 -9 -10 -21 -12 -12 -29 -19 -45 -18 -48 5 -66 -9 -84
-62 -9 -28 -16 -55 -16 -59 0 -4 21 -3 47 1 56 8 67 2 55 -32 -5 -13 -15 -54
-22 -91 -12 -65 -14 -68 -41 -69 -16 -1 -38 -3 -49 -4 -11 -1 -28 -3 -39 -4
-13 -1 -24 -16 -35 -52 -10 -28 -15 -54 -12 -57 7 -6 95 -6 102 0 3 3 13 4 24
1 15 -4 17 -12 13 -61 -3 -32 -11 -60 -17 -64 -7 -5 -7 -8 3 -8 10 0 11 -3 2
-13 -7 -10 -7 -17 0 -24 18 -18 -11 -27 -95 -28 -87 -1 -91 -3 -101 -68 -4
-24 -10 -35 -17 -31 -7 4 -8 3 -4 -4 5 -8 43 -12 111 -12 l104 0 0 -75 c0 -42
3 -81 7 -87 5 -7 2 -8 -7 -3 -12 7 -12 6 -1 -7 21 -26 -3 -33 -102 -30 l-89 3
7 -48 c5 -26 8 -54 9 -60 0 -8 17 -13 46 -14 118 -2 149 -4 148 -9 0 -3 3 -39
8 -80 5 -41 9 -81 8 -87 0 -7 3 -13 9 -13 5 0 6 -5 3 -11 -4 -6 -36 -8 -86 -6
-58 4 -77 2 -72 -6 5 -7 15 -34 23 -61 16 -53 19 -55 108 -58 48 -2 53 -4 58
-27 3 -15 14 -59 25 -99 10 -40 19 -75 19 -78 0 -11 -86 -1 -109 14 -18 11
-22 11 -15 1 5 -8 18 -41 29 -73 15 -44 25 -60 40 -62 100 -13 105 -15 105
-38 0 -12 3 -26 7 -29 11 -11 42 -107 35 -107 -4 0 -2 -4 3 -8 6 -4 16 -18 23
-31 13 -23 13 -23 -15 -16 -15 4 -35 9 -43 10 -8 2 -15 4 -15 5 0 1 -12 3 -27
4 -17 1 -24 -2 -19 -9 5 -5 14 -32 22 -58 16 -55 22 -59 99 -76 30 -7 62 -15
70 -18 23 -10 28 -10 61 -12 16 0 28 -4 26 -8 -3 -5 7 -8 21 -9 15 0 97 -12
182 -27 85 -14 178 -29 205 -32 28 -3 61 -8 75 -10 22 -3 58 -7 235 -21 22 -2
64 -4 92 -5 34 -1 51 -5 46 -12 -3 -6 -1 -7 5 -3 7 4 132 9 279 11 148 2 304
7 348 12 44 4 105 7 137 7 31 1 54 4 51 9 -2 4 15 8 39 8 101 3 113 4 118 10
3 4 32 10 65 13 33 4 67 9 75 11 19 5 65 14 112 21 21 3 71 13 110 23 l73 16
11 45 c7 25 15 53 19 63 9 21 -3 21 -170 -7 -49 -8 -110 -18 -135 -21 -25 -3
-56 -7 -70 -9 -14 -3 -59 -7 -100 -10 -74 -5 -58 2 40 19 43 7 46 7 190 38
229 50 218 46 225 84 4 22 10 31 18 27 9 -5 9 -4 1 5 -8 8 -9 25 -3 49 4 20 8
38 9 40 0 1 0 8 0 15 0 8 4 7 10 -3 5 -8 10 -10 10 -4 0 6 10 11 22 10 17 -1
25 9 39 49 25 72 24 75 -21 75 l-39 0 4 43 c5 50 12 83 20 96 3 5 1 12 -3 15
-15 9 -1 56 17 57 78 4 103 8 108 13 4 4 15 31 24 61 l16 53 -63 4 c-35 2 -64
0 -64 -4 0 -4 -7 -5 -15 -2 -8 4 -15 15 -15 26 0 13 4 17 13 12 9 -6 9 -4 1 7
-5 8 -9 32 -7 54 2 22 3 57 3 78 l-1 37 73 1 c86 1 116 4 124 11 3 3 8 30 11
60 l5 55 -103 -1 -104 -1 -2 85 c-1 47 -4 93 -7 103 -4 15 0 18 15 14 10 -3
19 -1 19 4 0 6 7 6 19 0 10 -6 21 -8 24 -5 3 3 33 5 67 5 38 0 63 4 65 12 3 7
-1 34 -8 61 l-13 50 -94 0 -95 1 -8 55 c-4 30 -6 65 -4 78 2 12 1 22 -3 22 -4
0 -7 11 -6 25 1 25 2 26 71 23 41 -2 71 1 72 7 3 13 -14 76 -26 94 -5 8 -33
15 -67 18 -33 2 -62 8 -66 12 -4 3 -9 31 -10 61 -2 30 -6 57 -9 60 -3 3 -8 21
-12 41 -4 27 -2 36 9 36 8 0 14 -3 14 -6 0 -14 53 -3 62 12 6 11 5 17 -1 17
-5 0 -16 19 -23 43 -12 34 -20 43 -41 45 -18 2 -25 7 -20 15 4 8 1 7 -9 -1
-14 -11 -17 -9 -22 15 -16 72 -30 129 -40 161 -6 19 -4 22 18 22 l24 0 -20 58
c-11 31 -21 58 -22 59 -3 4 -196 53 -221 57 -79 12 -161 32 -167 41 -5 6 -8 5
-8 -3 0 -7 -5 -10 -10 -7 -15 9 -109 24 -167 27 -18 1 -33 5 -33 9 0 4 -9 5
-20 2 -11 -3 -28 1 -37 8 -14 12 -15 12 -9 0 6 -10 4 -12 -10 -8 -19 6 -150
19 -211 21 -17 0 -34 4 -38 8 -4 4 -17 3 -30 -2 -13 -5 -25 -7 -28 -4 -7 7
-327 7 -334 0 -3 -3 -12 -1 -20 5 -7 6 -13 8 -13 3z m392 -222 c-1 -8 2 -11 8
-7 6 3 8 10 6 14 -3 4 13 7 35 8 26 1 37 -3 32 -11 -5 -8 -3 -8 8 0 8 5 25 9
39 8 14 -2 46 -4 72 -5 26 -1 46 -5 44 -8 -2 -3 35 -7 81 -8 47 -2 91 -7 98
-13 6 -5 14 -7 17 -5 3 3 32 1 64 -5 33 -5 78 -12 102 -15 23 -2 50 -8 60 -13
9 -5 33 -9 52 -11 19 -1 39 -6 44 -11 4 -4 14 -6 21 -4 14 6 28 -22 19 -37 -3
-5 -1 -9 4 -9 5 0 9 -6 10 -12 1 -7 3 -24 5 -38 1 -14 6 -31 10 -37 6 -9 0
-13 -22 -13 -16 0 -33 5 -36 10 -5 8 -11 7 -21 -1 -8 -6 -14 -7 -14 -2 0 6
-12 8 -26 5 -20 -4 -25 -2 -19 8 6 10 4 11 -6 4 -18 -11 -122 -5 -130 8 -4 7
-9 6 -13 -1 -4 -6 -17 -9 -29 -6 -28 7 -117 12 -347 20 -115 4 -190 11 -199
18 -11 9 -13 9 -8 1 5 -8 -16 -12 -73 -11 -49 1 -80 5 -80 11 0 8 -3 8 -8 0
-4 -6 -20 -10 -37 -10 -16 0 -33 4 -37 10 -6 8 -8 8 -8 0 0 -6 -23 -11 -52
-13 -28 -1 -55 -4 -59 -7 -4 -2 -15 3 -23 12 -9 9 -16 11 -16 4 0 -6 -4 -8
-10 -5 -5 3 -10 3 -10 -2 0 -4 -18 -8 -40 -8 -22 0 -40 4 -40 10 0 5 -5 3 -11
-5 -8 -12 -12 -12 -16 -2 -3 8 -9 10 -17 3 -14 -12 -128 -17 -146 -6 -8 5 -11
4 -7 -2 4 -7 -13 -10 -49 -9 -30 1 -58 -2 -61 -7 -3 -5 -9 -3 -14 4 -5 8 -9 9
-9 3 0 -6 -21 -11 -47 -12 -27 -1 -61 -5 -77 -8 -22 -5 -27 -3 -20 7 6 11 5
12 -7 3 -20 -16 -70 -24 -62 -10 4 6 -1 5 -10 -3 -14 -11 -17 -11 -17 0 0 10
-3 10 -8 3 -8 -12 -206 -39 -221 -30 -5 4 -12 0 -14 -6 -3 -8 -6 -6 -6 4 -1
20 64 52 88 43 9 -3 12 -3 8 1 -9 10 63 35 76 27 6 -3 7 -1 4 4 -8 13 79 37
95 27 6 -4 8 -3 5 3 -7 12 -10 11 157 54 65 16 125 28 133 25 8 -3 11 -1 8 4
-6 9 5 11 87 14 14 0 24 4 22 8 -3 5 3 8 13 9 10 0 25 2 34 4 8 1 42 6 75 9
32 4 73 9 89 11 85 13 115 14 108 2 -5 -9 -3 -9 8 0 18 15 56 18 214 18 103 0
129 -3 127 -13z m-292 -325 c9 3 11 1 4 -4 -6 -4 -11 -19 -11 -33 -2 -31 -6
-52 -16 -67 -4 -6 -4 -19 -1 -30 4 -13 3 -15 -4 -4 -6 8 -12 9 -16 3 -3 -6 -2
-13 4 -17 6 -4 8 -11 4 -16 -3 -5 -9 -7 -14 -4 -4 3 -10 -2 -14 -10 -6 -17 10
-30 17 -15 3 6 4 5 3 -2 -2 -7 -9 -12 -15 -10 -6 1 -11 -3 -11 -9 0 -5 -5 -7
-11 -3 -8 4 -7 9 2 15 8 5 12 9 9 10 -3 0 -13 2 -23 4 -12 2 -17 -2 -15 -13 4
-22 -47 -24 -79 -4 -14 8 -23 10 -23 4 0 -6 6 -13 13 -15 7 -3 5 -6 -5 -6 -9
-1 -22 7 -28 17 -11 16 -11 16 -6 0 6 -21 -23 -25 -43 -5 -11 10 -13 10 -7 0
5 -10 -10 -13 -63 -14 -39 0 -90 -2 -113 -3 -24 -1 -49 3 -57 9 -11 7 -13 7
-7 -3 6 -10 -5 -12 -51 -10 -32 1 -63 -1 -70 -5 -6 -4 -14 -3 -18 3 -4 6 -11
8 -16 4 -6 -3 -42 -7 -82 -9 -102 -5 -294 -16 -344 -20 -51 -4 -51 -6 -20 114
17 67 26 85 42 88 24 5 66 9 160 17 39 3 90 8 115 10 25 3 90 8 145 11 55 3
117 7 137 9 27 3 36 1 31 -7 -4 -7 -1 -7 9 1 11 9 73 13 227 15 116 1 211 6
211 10 0 4 8 4 18 -1 9 -5 24 -7 32 -5z m114 -2 c3 -8 2 -14 -2 -13 -15 3 -42
-15 -36 -24 3 -5 11 -2 18 7 11 16 13 15 27 -1 12 -16 12 -17 -3 -12 -9 4 -19
4 -22 0 -15 -15 -34 -9 -31 9 2 10 -2 19 -8 19 -7 0 -4 5 6 11 9 5 22 7 27 4
6 -3 10 -1 10 4 0 16 7 13 14 -4z m40 4 c9 8 16 9 16 3 0 -5 11 -9 25 -8 14 0
25 4 25 8 0 4 10 4 23 0 20 -7 32 -8 55 -3 9 3 218 -1 307 -4 39 -2 100 -4
137 -6 46 -1 65 -5 61 -13 -5 -8 -3 -8 8 0 12 9 33 11 42 5 1 -2 32 -3 70 -4
37 -1 67 -4 67 -7 0 -3 21 -4 46 -1 25 2 51 -2 57 -8 7 -7 15 -7 22 -1 24 20
44 -13 55 -90 6 -41 13 -85 16 -97 3 -18 0 -23 -18 -23 -12 0 -31 8 -42 18
-16 13 -18 13 -8 1 11 -14 6 -16 -40 -12 -29 2 -73 3 -97 4 -25 0 -52 5 -60
12 -12 10 -13 9 -7 -1 6 -9 1 -12 -16 -10 -12 2 -29 7 -37 12 -9 6 -12 5 -8 0
3 -6 -14 -9 -41 -8 -26 1 -125 4 -220 5 -95 2 -176 7 -179 12 -2 4 -11 3 -19
-4 -11 -9 -14 -9 -14 0 0 7 -5 9 -12 4 -19 -11 -38 -12 -38 -2 0 5 -5 9 -11 9
-5 0 -8 -3 -6 -7 4 -7 -83 -9 -90 -3 -8 7 -29 5 -40 -3 -8 -6 -11 -3 -10 11 1
14 8 19 24 18 13 0 23 -5 23 -10 0 -5 7 -3 15 4 10 9 15 9 15 1 0 -6 5 -11 11
-11 8 0 8 4 -1 14 -6 8 -17 13 -24 10 -6 -2 -12 5 -13 17 -2 16 1 18 12 9 15
-12 39 -5 30 9 -6 10 55 9 71 -1 6 -4 11 -1 11 6 0 8 -15 12 -46 11 -30 0 -45
-5 -43 -13 2 -13 -10 -16 -21 -5 -4 3 -2 12 5 20 8 10 8 17 -1 26 -10 9 -11 8
-5 -8 7 -18 6 -18 -9 -6 -11 9 -17 10 -17 2 0 -6 -4 -11 -9 -11 -6 0 -9 9 -8
20 1 13 6 19 15 15 7 -3 10 0 7 6 -4 6 -13 8 -21 5 -7 -3 -16 -1 -19 4 -3 4 1
10 7 13 17 6 6 17 -22 22 -29 5 -33 10 -37 38 -2 17 -1 18 6 8 8 -12 12 -12
25 -2z m-30 -61 c9 15 48 11 42 -4 -2 -6 0 -16 6 -22 6 -6 13 -24 14 -39 2
-21 1 -24 -6 -13 -5 8 -10 10 -10 4 0 -6 -12 -16 -26 -22 -14 -7 -22 -17 -19
-22 3 -6 1 -10 -6 -10 -16 0 -3 -13 17 -16 10 -2 13 3 9 16 -4 13 1 22 16 31
20 10 21 9 14 -7 -4 -11 -8 -25 -8 -31 0 -7 -4 -13 -9 -13 -5 0 -6 -6 -2 -12
5 -9 2 -9 -9 1 -9 7 -17 10 -17 6 0 -4 -6 -2 -14 5 -8 6 -12 18 -9 26 3 8 0
14 -7 14 -7 0 -10 6 -7 14 3 8 3 17 -1 21 -4 4 -8 11 -8 16 -1 5 -2 10 -4 12
-9 11 -5 37 6 37 8 0 14 6 14 13 0 9 3 8 9 -2 5 -8 11 -9 15 -3z m91 -88 c-13
-15 -14 -20 -5 -20 11 0 11 -3 2 -12 -8 -8 -15 -9 -22 -2 -11 11 14 54 32 54
6 0 3 -9 -7 -20z m20 -215 c11 0 23 4 27 10 4 5 6 0 5 -13 -1 -23 -17 -32 -17
-9 0 8 -3 7 -10 -3 -12 -20 10 -33 29 -17 12 10 13 9 6 -2 -5 -10 -4 -12 4 -7
14 9 11 -15 -4 -27 -6 -6 -4 -7 5 -5 8 3 23 -4 33 -14 9 -10 13 -18 7 -18 -5
0 -2 -8 8 -18 11 -12 20 -14 24 -8 5 7 8 5 8 -4 0 -12 2 -12 9 -2 7 11 9 10
14 -3 4 -9 3 -14 -1 -11 -5 3 -9 -1 -9 -9 0 -8 4 -15 9 -15 4 0 8 5 8 10 0 6
5 10 11 10 5 0 7 -5 3 -12 -4 -7 -3 -8 4 -4 7 4 12 2 12 -4 0 -6 -6 -10 -12
-9 -26 3 -39 -1 -33 -11 3 -5 15 -6 28 -1 12 4 32 7 44 6 12 -1 19 3 16 8 -3
6 -1 7 6 3 6 -4 9 -12 6 -17 -12 -18 7 -9 27 14 14 16 18 17 14 5 -3 -10 -2
-19 2 -22 4 -3 8 4 9 14 1 11 -13 32 -31 48 -18 16 -32 36 -30 45 2 15 -1 15
-33 2 -42 -18 -43 -18 -43 -6 0 5 8 11 18 13 10 3 19 12 19 21 0 9 -5 13 -10
10 -6 -4 -8 0 -4 9 4 11 0 15 -11 14 -9 -2 -23 4 -30 13 -11 14 -11 13 -2 -7
6 -12 14 -20 19 -18 4 3 13 -5 20 -16 11 -18 11 -20 -2 -15 -9 3 -18 -1 -22
-10 -9 -24 9 -37 33 -24 25 13 45 14 38 3 -3 -5 8 -19 25 -31 16 -12 27 -26
24 -31 -3 -5 -19 4 -36 20 -36 32 -72 31 -43 -1 9 -11 13 -19 8 -19 -11 1 -51
30 -40 30 5 0 -2 8 -15 19 -20 16 -22 21 -10 35 11 13 12 19 2 29 -10 9 -11 9
-6 -3 4 -11 -1 -16 -15 -17 -19 -2 -19 0 -4 23 15 22 15 24 0 18 -9 -3 -14
-10 -11 -14 3 -5 1 -11 -4 -14 -20 -13 -18 24 2 38 21 16 21 16 1 7 -14 -7
-24 -7 -32 1 -9 9 -12 9 -12 -1 0 -7 -5 -9 -10 -6 -19 12 1 25 27 19 17 -5 24
-3 20 3 -5 7 5 8 28 3 21 -5 35 -4 35 1 0 6 7 6 18 0 10 -6 24 -6 32 -1 8 5
17 7 20 5 5 -3 639 -17 722 -16 9 0 19 -8 22 -17 8 -25 25 -186 21 -191 -3 -2
-35 -3 -72 -2 -37 1 -138 2 -223 3 -98 0 -160 5 -169 12 -11 8 -13 8 -7 -1 4
-7 2 -13 -3 -13 -6 0 -11 6 -11 13 0 7 -3 8 -8 2 -9 -12 -82 -17 -82 -6 0 5
-7 12 -16 15 -13 5 -14 4 -6 -7 10 -11 -11 -13 -119 -11 -72 1 -133 5 -136 7
-2 3 -16 3 -29 1 -17 -3 -26 1 -31 13 -4 10 -11 22 -17 26 -7 5 -3 7 9 5 13
-2 20 4 23 17 2 15 1 17 -6 6 -8 -11 -11 -10 -14 5 -2 11 -12 19 -23 19 -16 0
-20 6 -18 33 2 28 -1 32 -12 22 -8 -6 -13 -17 -11 -23 1 -7 1 -9 -1 -4 -3 4
-9 5 -14 1 -16 -10 -9 9 9 22 14 11 15 13 2 14 -9 0 -21 -4 -28 -10 -9 -7 -9
-7 -2 2 15 18 12 28 -5 22 -8 -4 -15 -1 -15 6 0 6 5 8 10 5 6 -3 10 -1 10 4 0
6 -4 11 -10 11 -5 0 -10 5 -10 11 0 6 5 7 13 2 6 -4 21 -8 32 -8z m-683 -10
c5 -6 8 -6 8 3 0 6 9 12 21 12 11 0 17 -5 14 -10 -4 -6 -11 -7 -17 -4 -7 5 -8
2 -4 -5 6 -9 12 -9 24 3 21 19 152 18 152 -1 0 -7 -7 -10 -17 -6 -15 5 -14 3
2 -10 11 -8 23 -13 27 -11 5 3 8 -1 8 -8 0 -8 -9 -14 -20 -15 -11 -1 -19 4
-17 10 1 7 -5 12 -13 12 -14 0 -17 -13 -9 -44 2 -7 -2 -16 -9 -18 -7 -3 -12
-1 -11 4 3 19 -2 31 -15 36 -10 4 -13 1 -9 -9 3 -7 8 -14 12 -14 4 0 7 -8 8
-18 1 -14 -6 -18 -28 -18 -16 0 -29 3 -29 8 0 4 -5 8 -11 8 -8 0 -9 -4 0 -13
6 -8 8 -17 4 -20 -9 -10 -25 -9 -19 1 2 4 -4 9 -15 9 -18 2 -18 0 5 -18 14
-11 23 -26 20 -33 -8 -21 9 -26 26 -8 13 14 12 15 -5 8 -15 -5 -17 -4 -8 5 15
15 34 3 26 -18 -4 -10 -2 -14 5 -9 6 3 13 3 15 -1 3 -5 -21 -8 -54 -9 -32 0
-56 3 -53 8 3 4 0 8 -5 8 -6 0 -11 -4 -11 -10 0 -5 -4 -10 -10 -10 -5 0 -7 6
-4 14 3 8 0 17 -6 21 -8 5 -6 11 5 19 16 11 15 13 -2 27 -17 13 -17 13 -3 -5
14 -18 13 -19 -3 -13 -12 5 -16 3 -11 -5 5 -8 1 -9 -12 -5 -14 5 -12 2 6 -12
14 -11 21 -23 17 -28 -14 -13 -117 -13 -117 1 0 6 -5 3 -10 -6 -8 -13 -16 -15
-44 -7 -38 11 -57 9 -68 -6 -5 -6 -8 -5 -8 3 0 10 -5 10 -20 2 -15 -8 -20 -8
-20 1 0 8 -4 8 -15 -1 -11 -9 -15 -9 -15 -1 0 7 -5 9 -12 5 -19 -12 -88 -12
-88 0 0 6 -4 5 -9 -3 -6 -10 -10 -10 -16 -1 -6 9 -9 9 -15 -1 -7 -10 -12 -10
-26 2 -11 9 -15 9 -10 2 4 -7 3 -13 -3 -13 -5 0 -13 5 -17 11 -4 8 -9 8 -17 0
-15 -15 -30 -14 -21 2 6 10 4 10 -7 0 -18 -17 -32 -16 -26 2 4 8 2 17 -4 20
-5 4 -9 3 -8 -2 5 -30 -3 -34 -63 -31 -35 2 -62 7 -61 13 1 12 15 154 16 173
0 6 10 13 21 13 12 1 28 2 36 3 8 1 24 -5 35 -14 18 -14 19 -14 6 3 -15 20 -2
23 18 5 8 -8 11 -8 8 -2 -5 8 14 12 64 13 39 0 76 4 81 8 7 4 8 1 3 -8 -8 -12
-6 -12 8 0 13 10 20 11 31 2 8 -7 17 -8 20 -3 3 5 49 10 103 11 54 1 98 3 99
4 8 8 190 1 196 -8z m275 3 c-6 -4 -8 -8 -3 -8 5 0 3 -6 -3 -14 -9 -11 -6 -13
14 -13 22 0 24 2 13 16 -12 14 -11 15 5 2 21 -17 10 -33 -25 -36 -12 -1 -24
-7 -26 -13 -2 -7 2 -10 11 -6 8 3 18 1 22 -5 4 -7 0 -8 -11 -4 -11 4 -15 3
-11 -4 4 -6 0 -18 -8 -26 -8 -9 -15 -18 -15 -21 0 -3 -12 -18 -27 -33 -14 -15
-23 -23 -20 -16 11 17 -3 42 -19 36 -8 -3 -19 -14 -25 -25 -9 -16 -8 -19 3
-15 7 2 12 10 11 16 -2 6 1 11 6 11 5 0 8 -12 8 -27 0 -16 -2 -22 -4 -15 -4
10 -8 10 -19 1 -8 -6 -14 -7 -14 -2 0 18 -42 54 -56 49 -17 -7 -18 6 -2 22 9
9 15 7 25 -6 7 -9 12 -12 11 -7 -2 6 2 11 7 13 6 2 20 13 32 24 17 16 20 25
13 39 -13 23 -13 29 0 29 6 0 9 -3 9 -7 -5 -28 1 -35 18 -22 11 10 14 10 9 2
-4 -7 -3 -13 2 -13 7 0 32 42 32 55 0 2 -8 2 -19 0 -14 -2 -18 1 -14 15 4 13
14 18 44 17 23 -1 34 -4 26 -9z m47 -4 c5 -14 4 -15 -9 -4 -17 14 -19 20 -6
20 5 0 12 -7 15 -16z m444 -55 c8 -12 19 -18 28 -15 9 3 12 2 9 -5 -4 -5 -2
-16 5 -24 9 -11 7 -13 -7 -11 -10 2 -18 8 -18 15 0 6 -4 15 -10 19 -18 12 -38
42 -29 42 5 0 15 -9 22 -21z m-54 -54 c10 -8 23 -12 27 -9 5 3 9 1 9 -5 0 -15
-33 -9 -52 11 -21 21 -11 23 16 3z m221 -54 c4 -11 3 -12 -10 -1 -12 10 -18
10 -32 -1 -16 -13 -17 -12 -5 3 9 11 10 18 2 23 -5 3 -10 11 -10 16 0 13 47
-22 55 -40z m153 -169 c10 8 13 9 9 1 -4 -6 -3 -14 3 -18 5 -3 10 -1 10 4 0
20 29 11 35 -10 6 -17 9 -19 16 -8 8 12 11 12 20 -1 9 -13 10 -13 6 0 -2 8
-11 15 -19 14 -8 -1 -15 5 -15 12 0 11 5 11 25 -2 20 -13 24 -14 20 -2 -4 10
1 14 17 14 13 0 21 -4 19 -8 -3 -5 -11 -5 -17 -2 -9 5 -9 3 0 -6 10 -11 15
-11 28 0 15 13 21 3 7 -15 -10 -14 -42 -15 -42 -1 -1 6 -7 0 -15 -14 -8 -14
-14 -20 -15 -13 0 6 -9 12 -20 12 -11 1 -29 1 -40 2 -11 0 -20 5 -20 10 0 6
-4 8 -9 4 -5 -3 -12 -1 -16 4 -3 5 -14 8 -25 6 -11 -2 -22 0 -25 5 -3 5 4 7
15 5 11 -2 20 2 21 8 0 8 2 8 6 -1 4 -10 8 -10 21 0z m197 -22 c-3 -10 -1 -21
5 -25 15 -9 12 -35 -5 -35 -8 0 -15 5 -15 11 0 5 5 7 12 3 7 -4 8 -3 4 4 -4 8
-14 9 -24 4 -9 -5 -23 -7 -29 -6 -7 1 -17 2 -23 3 -20 2 -9 18 13 18 41 1 48
3 42 13 -3 6 -2 10 4 10 6 0 7 7 4 17 -4 11 -3 14 6 9 6 -4 9 -16 6 -26z m31
5 c-4 -14 -2 -25 4 -25 5 0 9 3 9 8 -5 27 5 31 101 34 62 2 100 -1 101 -7 0
-7 2 -7 5 0 4 11 95 12 113 1 6 -4 11 -2 11 5 0 8 3 9 9 4 14 -14 24 -78 12
-71 -5 4 -13 2 -16 -4 -4 -6 -1 -9 6 -8 9 2 13 -16 15 -64 l1 -67 -216 1
c-120 1 -221 -1 -227 -4 -12 -8 -54 9 -55 22 -1 5 -2 14 -3 19 0 5 -5 13 -10
18 -5 4 -6 3 -2 -4 3 -6 2 -14 -4 -18 -5 -3 -10 -12 -10 -18 0 -8 3 -8 9 1 6
11 9 9 13 -5 3 -12 0 -20 -8 -20 -8 0 -14 4 -14 8 0 9 -20 7 -37 -4 -6 -4 -14
-3 -18 2 -5 10 -36 7 -55 -4 -6 -3 -10 -1 -10 4 0 6 5 11 11 11 6 0 17 7 25
15 8 8 22 11 31 8 11 -4 14 -3 9 6 -4 6 -4 11 1 10 4 -1 11 0 16 1 4 1 12 4
17 5 6 1 11 4 13 5 1 1 13 3 27 5 14 2 35 6 48 9 15 3 22 0 22 -10 0 -8 -4
-14 -10 -14 -5 0 -10 5 -10 11 0 8 -4 8 -15 -1 -8 -6 -19 -9 -26 -5 -8 6 -8 2
0 -12 6 -11 7 -23 4 -27 -3 -3 -1 -6 5 -6 11 0 16 13 14 31 -1 4 10 6 23 5 19
-1 23 -5 19 -18 -3 -10 0 -18 6 -18 6 0 8 5 5 10 -3 6 -1 10 4 10 6 0 11 -5
11 -12 0 -6 3 -8 7 -5 3 4 -1 15 -9 24 -35 41 -11 57 85 56 15 0 27 4 27 10 0
5 7 4 15 -3 9 -7 18 -10 22 -6 3 3 1 6 -6 6 -9 0 -9 6 -1 23 10 20 10 20 -3 5
-8 -10 -17 -15 -20 -12 -4 4 -26 7 -49 8 -30 1 -43 6 -43 16 0 8 -6 20 -14 26
-11 8 -11 15 -2 32 16 30 25 28 17 -3z m-1406 4 c0 -6 -15 -11 -65 -25 -5 -1
-19 -4 -30 -6 -11 -2 -25 -7 -32 -11 -6 -4 -19 -4 -29 0 -11 4 -15 2 -11 -4 4
-6 -6 -9 -29 -6 -20 2 -33 0 -30 -5 2 -4 -9 -9 -25 -10 -32 -3 -34 0 -19 28 7
13 7 21 -2 26 -6 4 -8 3 -4 -4 3 -6 2 -13 -4 -17 -5 -3 -10 -15 -10 -25 0 -16
-6 -19 -32 -17 -18 1 -33 -2 -33 -8 0 -5 3 -9 8 -8 4 2 7 -2 7 -8 0 -6 7 -9
15 -5 20 7 75 -4 75 -16 0 -5 -4 -7 -9 -4 -5 3 -14 -1 -21 -9 -7 -8 -16 -12
-21 -9 -5 3 -6 -2 -3 -10 5 -13 9 -12 26 7 16 17 19 18 14 4 -3 -10 -2 -16 3
-12 5 3 12 -1 15 -7 2 -7 4 -2 3 12 -2 21 3 25 26 26 15 1 30 -3 33 -7 2 -4
13 -6 24 -4 12 2 18 0 14 -6 -3 -6 5 -8 20 -5 14 3 28 0 32 -5 3 -5 9 -7 14
-4 5 3 11 1 15 -5 4 -6 11 -8 16 -5 5 4 12 -1 15 -9 3 -9 10 -16 16 -16 5 0 6
5 2 12 -4 7 -3 8 5 4 15 -10 3 -29 -15 -22 -8 3 -14 0 -15 -7 0 -8 -2 -8 -5
-1 -3 7 -29 10 -74 7 -57 -3 -68 -1 -66 11 3 22 16 32 16 13 0 -24 15 -21 17
2 1 14 -4 19 -18 16 -13 -3 -19 2 -19 13 0 14 -2 15 -10 2 -5 -8 -6 -17 -2
-20 4 -3 8 -12 7 -20 0 -12 -19 -15 -97 -17 -61 -1 -98 2 -98 8 0 6 4 8 8 5 5
-3 9 0 9 7 0 7 -8 13 -17 13 -11 0 -15 -6 -13 -17 4 -15 -8 -17 -121 -15 -118
1 -126 2 -127 21 -7 114 -6 142 4 154 9 12 9 13 0 7 -8 -4 -13 -1 -13 9 0 14
36 15 330 13 181 -2 330 -6 330 -9z m-350 -332 c0 -5 5 -5 11 -1 10 6 77 6
214 0 17 0 36 -5 44 -10 10 -6 12 -6 7 2 -4 7 -2 12 3 12 6 0 11 -6 11 -12 0
-9 3 -9 8 -2 8 12 84 15 76 3 -3 -5 0 -9 5 -9 6 0 11 6 12 13 0 8 2 8 6 -2 5
-11 7 -11 14 0 7 11 9 11 9 -2 0 -9 10 -24 22 -35 12 -10 18 -13 14 -6 -4 7
-2 12 4 12 7 0 10 7 7 15 -7 17 9 30 18 15 5 -8 11 -7 21 1 11 9 14 9 14 -1 0
-10 3 -10 14 -1 10 9 16 9 21 1 5 -8 10 -8 20 0 10 8 15 8 20 0 4 -6 13 -9 21
-6 7 3 16 2 18 -3 7 -11 -27 -10 -41 2 -17 13 -16 -3 1 -25 14 -19 32 -25 21
-8 -3 6 -1 10 4 10 19 0 12 -19 -10 -31 -17 -9 -20 -8 -14 2 5 8 4 10 -3 5 -8
-5 -10 -1 -6 11 4 14 3 15 -4 4 -6 -8 -12 -9 -16 -3 -3 6 -1 12 6 14 7 3 5 7
-6 11 -9 4 -15 3 -12 -1 3 -4 -6 -8 -19 -8 -13 0 -21 4 -19 8 3 4 0 8 -5 8
-14 0 -14 -13 1 -28 7 -7 8 -12 2 -12 -6 0 -14 4 -20 10 -6 6 -14 3 -22 -10
-7 -12 -8 -20 -2 -20 5 0 10 4 10 9 0 14 53 6 58 -8 2 -6 -4 -23 -13 -37 -9
-14 -15 -28 -12 -30 2 -2 15 16 28 40 13 25 27 42 32 39 4 -2 -1 -20 -13 -40
-19 -33 -19 -60 1 -48 5 4 9 2 9 -4 0 -5 -5 -12 -10 -14 -6 -3 -5 -4 2 -3 7 1
14 12 14 24 1 19 -1 20 -14 10 -13 -11 -14 -10 -10 2 6 19 44 20 40 1 -2 -7 5
-23 15 -34 18 -19 17 -19 -6 -12 -16 5 -21 4 -17 -4 4 -6 13 -11 21 -11 7 0
15 -3 18 -7 2 -5 2 -2 0 5 -1 8 3 12 9 9 7 -2 12 -10 10 -17 -2 -11 0 -11 11
-1 16 13 17 27 2 51 -8 13 -7 13 11 0 18 -14 18 -14 5 2 -7 10 -17 16 -21 13
-14 -9 -5 30 10 43 13 11 11 11 -7 2 -15 -7 -20 -16 -16 -28 5 -14 3 -14 -9 2
-9 12 -20 16 -28 11 -9 -6 -11 -4 -5 5 6 10 4 12 -8 7 -10 -4 -14 -2 -11 7 6
16 34 17 52 3 10 -8 13 -7 12 4 -4 27 0 49 10 49 5 0 6 -7 3 -17 -5 -12 -3
-14 8 -8 12 8 12 6 0 -8 -12 -15 -12 -17 3 -11 19 7 20 1 4 -25 -9 -15 -9 -23
1 -35 8 -9 18 -16 24 -16 6 0 2 7 -9 15 -18 14 -18 16 -2 28 10 8 15 17 11 20
-3 4 -4 7 0 7 3 0 15 -13 27 -30 12 -16 17 -30 11 -30 -5 0 -12 9 -16 19 -6
20 -35 19 -35 -2 0 -6 3 -7 7 -4 3 4 12 -2 20 -12 8 -12 21 -18 34 -16 12 3
19 2 16 -2 -4 -3 2 -18 13 -33 15 -20 16 -27 5 -27 -8 0 -12 3 -10 7 7 11 -25
51 -36 45 -5 -4 -9 -11 -9 -16 0 -6 4 -8 9 -4 14 8 25 -15 13 -27 -8 -8 -16
-7 -27 2 -8 7 -15 8 -15 3 0 -5 -22 -9 -49 -9 -27 1 -47 5 -44 10 4 5 0 5 -8
0 -19 -12 -162 -11 -171 1 -5 6 -8 6 -8 -2 0 -7 -9 -10 -21 -8 -12 2 -75 5
-140 6 -86 1 -117 4 -112 13 4 7 1 7 -7 -1 -10 -9 -17 -10 -27 -2 -7 7 -13 7
-13 2 0 -5 -17 -8 -37 -7 -21 2 -101 5 -177 8 -77 3 -141 8 -143 10 -2 2 -6
19 -8 37 -2 19 -6 45 -8 59 -3 14 -8 44 -11 67 l-6 43 145 -3 c80 -1 145 -6
145 -10z m2121 4 c3 -1 4 -29 3 -63 -1 -35 -3 -82 -3 -104 -1 -40 -2 -42 -33
-43 -18 0 -44 -2 -57 -5 -13 -3 -29 -2 -35 2 -16 10 -35 11 -40 3 -3 -4 -58
-9 -123 -10 -65 -1 -148 -3 -185 -5 -47 -2 -65 0 -61 8 5 8 3 8 -8 0 -8 -6
-61 -10 -129 -10 -110 1 -115 2 -114 22 1 11 -5 21 -12 21 -7 0 -10 -5 -6 -11
19 -32 10 -35 -93 -33 -103 2 -104 2 -121 31 -9 16 -12 26 -6 23 5 -4 13 0 16
9 4 10 13 13 24 10 13 -4 19 -1 19 9 0 10 -8 13 -26 10 -22 -5 -23 -4 -6 4 11
5 14 10 8 10 -7 1 -13 6 -13 12 0 8 5 8 15 -1 12 -10 18 -10 30 0 8 7 15 17
15 23 0 7 -4 7 -12 -1 -16 -16 -25 -15 -25 2 0 8 6 12 14 9 8 -3 13 0 11 6 -2
7 13 24 32 39 19 15 29 19 21 10 -19 -25 -2 -22 27 5 14 12 22 16 18 9 -8 -13
19 -13 40 1 7 4 14 1 17 -7 4 -9 -2 -12 -19 -10 -13 1 -24 -2 -24 -7 0 -6 -4
-8 -9 -4 -5 3 -13 0 -17 -6 -4 -7 -3 -9 3 -6 5 3 10 0 10 -8 0 -8 -5 -11 -10
-8 -6 4 -7 1 -2 -7 6 -9 4 -11 -5 -5 -8 5 -11 4 -7 -2 3 -5 0 -10 -8 -10 -13
0 -13 3 1 18 9 10 11 19 5 23 -5 4 -12 -3 -16 -14 -4 -11 -10 -18 -15 -15 -21
13 -21 -20 1 -36 13 -10 20 -21 16 -25 -4 -4 -7 -2 -7 4 0 7 -4 12 -8 12 -5 0
-9 -7 -9 -15 0 -8 4 -12 9 -9 4 3 8 1 8 -3 0 -5 -9 -14 -21 -21 -17 -11 -20
-11 -17 4 2 9 -3 18 -10 20 -7 1 -8 0 -2 -3 7 -3 4 -11 -7 -20 -10 -8 -12 -11
-5 -8 12 6 12 3 2 -16 -7 -13 -9 -21 -5 -17 5 4 14 3 21 -3 8 -7 14 -6 20 2 4
8 3 9 -4 5 -7 -4 -12 -3 -12 3 0 19 19 21 30 4 8 -13 10 -14 9 -3 -3 29 1 41
11 35 5 -3 7 -13 4 -23 -5 -13 -4 -14 4 -3 6 8 15 10 22 6 9 -6 11 -4 5 5 -5
9 -2 10 14 5 11 -3 21 -2 21 3 0 5 -14 9 -32 8 -17 0 -33 4 -35 10 -2 7 4 11
14 10 12 0 17 5 17 17 -1 10 3 16 10 14 6 -2 10 -13 8 -23 -2 -16 -1 -16 7 -4
7 9 7 18 1 24 -19 19 -10 29 10 11 11 -10 20 -13 20 -7 0 7 -5 12 -11 12 -5 0
-7 5 -4 11 5 7 14 4 26 -7 23 -21 25 -12 3 11 -19 18 -11 33 9 17 14 -12 42
-11 54 3 4 4 2 5 -4 1 -8 -5 -13 -1 -14 11 -1 17 -2 17 -6 1 -2 -10 -9 -18
-13 -18 -6 0 -6 9 -1 23 5 12 9 26 10 32 1 8 15 10 51 6 6 0 9 -7 8 -13 -4
-19 45 -16 49 2 3 9 1 11 -4 5 -13 -16 -43 -18 -38 -3 3 8 24 13 54 13 32 1
47 -3 43 -10 -3 -5 2 -4 11 4 14 11 17 11 17 0 0 -9 3 -10 8 -4 8 12 72 13 90
2 7 -5 18 -5 25 0 7 5 27 10 45 12 30 2 38 -5 33 -32 -1 -5 3 -6 8 -2 6 3 8
12 5 19 -4 11 19 14 122 15 71 1 129 3 130 4 2 2 81 0 95 -2z m-1668 -34 c-3
-5 -9 -3 -14 4 -4 7 -5 17 -2 22 3 5 9 3 14 -4 4 -7 5 -17 2 -22z m897 5 c-5
-2 -6 -10 -3 -18 3 -10 0 -12 -10 -8 -10 3 -20 -2 -27 -16 -6 -11 -15 -18 -20
-15 -5 3 -18 -3 -29 -14 -13 -13 -16 -21 -8 -24 7 -2 9 -7 6 -11 -4 -4 -19 5
-33 19 -29 29 -35 45 -9 24 20 -17 17 -18 42 5 11 10 18 23 15 27 -6 10 12 19
43 23 10 2 19 8 19 14 3 25 5 27 14 12 5 -9 6 -16 0 -18z m-795 -24 c4 -3 2
-9 -3 -12 -5 -3 -15 1 -21 8 -10 11 -9 14 3 12 9 -1 18 -5 21 -8z m86 -104
c26 -32 19 -45 -12 -23 -16 11 -29 25 -29 30 0 15 26 10 41 -7z m457 -57 c8
-10 6 -13 -7 -13 -11 0 -17 6 -14 13 3 7 6 13 8 13 1 0 7 -6 13 -13z m-1223
-122 c25 1 45 -5 53 -14 10 -13 11 -14 7 -1 -5 13 8 15 87 12 57 -2 96 -8 100
-15 6 -9 8 -9 8 0 0 11 30 10 49 -2 5 -3 12 -1 16 5 4 6 10 8 14 6 4 -3 86 -8
181 -11 145 -4 177 -8 194 -23 19 -16 20 -16 7 0 -12 16 -5 17 91 14 57 -1
109 -6 116 -10 7 -4 12 -2 12 6 0 10 2 10 9 -1 5 -8 14 -10 22 -6 8 5 11 5 7
0 -4 -4 -2 -15 5 -23 9 -13 9 -14 0 -8 -7 4 -13 3 -13 -2 0 -6 6 -12 14 -15 9
-4 13 -17 10 -42 -2 -26 0 -34 9 -28 7 4 5 -2 -3 -12 -14 -17 -13 -18 2 -12
13 4 16 1 13 -14 -2 -10 1 -19 7 -19 6 0 -2 -10 -17 -22 -27 -21 -110 -34 -99
-16 3 4 0 8 -5 8 -6 0 -11 -4 -11 -8 0 -19 -39 -6 -43 14 -3 17 1 22 15 21 12
-1 17 -6 13 -17 -5 -11 -3 -12 6 -3 16 16 4 31 -23 29 -17 -1 -22 -6 -20 -22
2 -19 -3 -20 -104 -23 -69 -1 -104 1 -100 8 4 5 2 13 -4 16 -6 4 -9 1 -8 -6 3
-13 -86 -14 -222 -4 -19 2 -54 3 -78 4 -24 1 -41 5 -37 10 3 5 1 13 -5 16 -6
4 -9 1 -8 -7 2 -9 -6 -12 -27 -11 -16 2 -47 3 -68 4 -20 0 -35 4 -32 9 3 5 1
12 -5 15 -6 4 -9 1 -8 -7 3 -13 -1 -13 -120 -4 -23 1 -47 7 -51 12 -11 12 -60
201 -54 207 2 3 17 2 31 -2 15 -3 45 -6 67 -6z m2062 -18 c-8 13 115 14 132 0
12 -9 13 -9 7 1 -5 8 -1 12 12 12 18 0 19 -5 15 -42 -3 -24 -11 -49 -17 -57
-9 -12 -8 -13 4 -6 13 8 13 7 1 -8 -9 -12 -10 -17 -2 -17 7 0 10 -4 6 -9 -3
-5 -7 -23 -9 -41 -2 -17 -5 -32 -7 -34 -2 -2 -49 -7 -104 -11 -55 -3 -117 -8
-138 -9 -21 -2 -40 1 -43 6 -3 5 -11 5 -18 -1 -6 -5 -99 -13 -206 -16 -107 -4
-207 -8 -223 -10 -15 -1 -30 2 -33 7 -3 5 -12 4 -20 -3 -11 -9 -14 -9 -14 0 0
8 -5 9 -19 1 -26 -13 -34 -13 -25 3 6 10 4 10 -7 0 -7 -7 -18 -13 -23 -13 -6
0 -4 5 4 10 8 5 10 10 4 10 -6 0 -14 -3 -18 -7 -12 -12 -86 -12 -86 0 0 8 -3
8 -8 2 -10 -14 -32 -17 -32 -5 0 5 7 13 16 18 14 8 14 13 5 28 -10 15 -11 16
-7 2 3 -11 -3 -23 -14 -31 -11 -8 -18 -16 -15 -18 2 -3 -15 -5 -39 -5 -38 0
-42 3 -38 20 3 11 7 15 9 9 3 -7 11 -9 20 -6 12 5 14 3 8 -7 -5 -8 4 -6 23 5
26 16 28 20 16 32 -8 8 -11 20 -7 26 4 7 9 4 13 -8 6 -17 7 -17 13 -2 4 10 12
14 22 11 8 -3 12 -10 9 -15 -3 -5 0 -9 5 -9 17 0 13 18 -6 28 -21 12 -28 46
-7 38 8 -3 14 -1 14 4 0 6 -8 10 -17 11 -11 0 -13 3 -5 6 6 2 10 8 7 12 -2 5
2 17 9 27 13 17 14 17 15 -11 0 -17 1 -43 2 -60 1 -24 2 -26 6 -7 2 12 9 20
14 17 12 -8 23 21 15 41 -5 13 -9 14 -20 5 -11 -9 -13 -6 -12 20 1 17 9 35 19
40 11 7 17 7 17 -1 0 -5 -4 -10 -10 -10 -5 0 -10 -5 -10 -12 0 -6 8 -4 19 6
15 13 20 14 24 4 4 -8 6 -6 6 5 1 10 5 16 11 12 5 -3 7 -13 4 -23 -2 -9 1 -7
7 6 7 12 16 22 21 22 5 0 6 -5 2 -11 -4 -8 0 -8 15 0 16 9 21 9 21 -1 0 -9 3
-9 8 -2 4 7 67 12 172 13 91 1 184 3 207 5 27 2 40 -1 36 -7 -4 -6 -1 -7 8 -1
8 5 54 10 103 11 49 1 91 5 94 7 2 3 14 1 25 -5 10 -6 17 -7 14 -2z m-914 -24
c-6 -16 -5 -16 10 -4 9 7 17 10 17 6 0 -4 7 -2 15 5 10 9 15 9 15 1 0 -13 22
-10 32 4 5 6 8 5 8 -2 0 -7 -9 -22 -20 -33 -11 -11 -20 -22 -20 -25 0 -3 0
-10 0 -16 0 -5 -6 -7 -12 -3 -10 6 -9 3 0 -9 12 -14 11 -16 -6 -14 -13 1 -20
8 -19 19 1 16 10 22 29 19 4 0 4 7 1 16 -4 11 -8 13 -11 5 -2 -7 -8 -12 -13
-12 -6 0 -8 4 -4 9 3 5 0 13 -6 17 -7 4 -9 3 -6 -3 7 -12 -16 -36 -25 -27 -3
3 -9 0 -14 -7 -5 -8 -1 -11 13 -7 12 3 20 0 20 -8 0 -7 -4 -11 -9 -8 -4 3 -16
1 -25 -5 -17 -9 -17 -10 -1 -16 10 -4 15 -12 12 -17 -4 -6 -10 -5 -15 3 -6 9
-8 4 -5 -15 5 -28 26 -61 26 -40 0 5 5 2 11 -6 9 -13 10 -13 6 0 -2 8 -10 14
-16 13 -14 -4 -8 34 8 50 11 10 12 7 7 -13 -6 -23 -6 -24 6 -5 16 25 45 31 45
10 0 -10 -6 -14 -15 -10 -20 8 -33 -14 -21 -36 12 -23 -3 -32 -33 -20 -23 9
-51 1 -49 -13 3 -19 0 -27 -9 -21 -6 3 -6 15 0 29 5 13 6 27 2 31 -3 3 1 3 11
-1 13 -5 16 -2 11 10 -3 9 -11 13 -18 9 -6 -4 -5 1 2 10 8 9 11 21 8 26 -4 5
-2 12 4 16 6 4 8 10 5 15 -3 5 -1 11 4 15 5 3 8 14 6 25 -2 11 -1 19 3 17 4
-1 8 2 9 7 1 7 22 25 30 26 1 0 -1 -8 -4 -17z m127 -75 c0 -16 -3 -19 -11 -11
-6 6 -8 16 -5 22 11 17 16 13 16 -11z m-130 -18 c0 -5 -2 -10 -4 -10 -3 0 -8
5 -11 10 -3 6 -1 10 4 10 6 0 11 -4 11 -10z m-131 -121 c-16 -10 -23 -4 -14
10 3 6 11 8 17 5 6 -4 5 -9 -3 -15z m-983 -87 c-2 -4 11 -6 30 -4 20 3 41 -2
51 -9 14 -12 16 -12 8 0 -5 10 -4 12 4 7 6 -4 48 -9 94 -12 45 -2 92 -6 105
-9 13 -3 73 -8 135 -11 62 -3 126 -7 142 -8 17 0 35 -5 42 -9 6 -4 14 -3 17 1
3 5 18 8 33 5 16 -2 74 -5 130 -7 64 -2 108 -8 118 -16 13 -11 14 -10 9 5 -5
12 -4 16 3 12 15 -10 157 -12 171 -3 7 4 12 2 12 -5 0 -8 3 -9 13 0 8 6 17 8
20 5 6 -6 56 -6 222 0 54 2 73 -1 83 -13 11 -14 11 -14 6 1 -5 15 3 17 75 15
45 -1 81 0 81 3 0 3 21 5 48 6 58 1 260 13 327 19 28 3 79 8 115 11 36 4 61 3
57 -2 -4 -4 -13 -9 -20 -10 -7 -1 -32 -7 -57 -14 -25 -7 -55 -14 -67 -16 -13
-2 -35 -7 -50 -10 -16 -4 -45 -7 -65 -7 -20 -1 -34 -5 -32 -9 3 -5 -10 -7 -30
-5 -19 2 -33 1 -31 -3 6 -10 -112 -23 -127 -14 -7 4 -8 3 -4 -4 5 -8 -4 -12
-26 -13 -18 0 -42 -2 -53 -4 -76 -15 -115 -16 -115 -3 0 10 -3 9 -10 -2 -5 -8
-22 -15 -37 -16 -92 -5 -229 -17 -232 -20 -2 -2 -11 2 -19 9 -13 9 -14 9 -8 0
5 -10 1 -11 -19 -3 -14 5 -24 6 -21 2 3 -5 -69 -9 -160 -10 -104 -1 -163 2
-159 8 3 6 1 10 -4 10 -6 0 -11 -4 -11 -9 0 -12 -71 -3 -89 12 -12 10 -13 9
-7 -1 7 -11 -5 -12 -60 -8 -135 12 -259 28 -275 37 -9 4 -19 6 -22 3 -5 -5
-119 13 -147 23 -8 4 -21 5 -27 4 -7 -1 -13 2 -13 6 0 4 -12 9 -27 9 -53 3
-98 14 -102 25 -2 8 -5 8 -11 -1 -10 -15 -43 17 -36 36 3 7 0 15 -7 18 -7 2
-2 5 11 5 13 1 21 -3 18 -7z m1757 -279 c-7 -2 -21 -2 -30 0 -10 3 -4 5 12 5
17 0 24 -2 18 -5z"/>
<path d="M2210 3140 c0 -5 5 -10 11 -10 5 0 7 5 4 10 -3 6 -8 10 -11 10 -2 0
-4 -4 -4 -10z"/>
<path d="M1870 3121 c0 -6 4 -13 10 -16 6 -3 7 1 4 9 -7 18 -14 21 -14 7z"/>
<path d="M2615 3111 c-3 -5 -2 -12 3 -15 5 -3 9 1 9 9 0 17 -3 19 -12 6z"/>
<path d="M1650 3100 c0 -5 5 -10 11 -10 5 0 7 5 4 10 -3 6 -8 10 -11 10 -2 0
-4 -4 -4 -10z"/>
<path d="M2215 3100 c3 -5 8 -10 11 -10 2 0 4 5 4 10 0 6 -5 10 -11 10 -5 0
-7 -4 -4 -10z"/>
<path d="M2255 3100 c3 -5 8 -10 11 -10 2 0 4 5 4 10 0 6 -5 10 -11 10 -5 0
-7 -4 -4 -10z"/>
<path d="M2334 3102 c4 -3 14 -7 22 -8 9 -1 13 0 10 4 -4 3 -14 7 -22 8 -9 1
-13 0 -10 -4z"/>
<path d="M2659 3108 c-5 -18 -6 -38 -1 -34 7 8 12 36 6 36 -2 0 -4 -1 -5 -2z"/>
<path d="M1615 3091 c-3 -5 -2 -12 3 -15 5 -3 9 1 9 9 0 17 -3 19 -12 6z"/>
<path d="M1850 3081 c0 -6 4 -13 10 -16 6 -3 7 1 4 9 -7 18 -14 21 -14 7z"/>
<path d="M1961 3076 c-9 -11 -9 -16 1 -22 7 -4 10 -4 6 1 -4 4 -3 14 3 22 6 7
9 13 6 13 -2 0 -10 -6 -16 -14z"/>
<path d="M2715 3069 c-4 -6 -5 -12 -2 -15 2 -3 7 2 10 11 7 17 1 20 -8 4z"/>
<path d="M1656 3062 c-3 -4 4 -9 15 -9 23 -2 25 3 4 10 -8 4 -16 3 -19 -1z"/>
<path d="M1910 3062 c0 -5 7 -9 15 -9 8 0 12 4 9 9 -3 4 -9 8 -15 8 -5 0 -9
-4 -9 -8z"/>
<path d="M1986 3062 c-2 -4 4 -8 14 -8 10 0 16 4 14 8 -3 4 -9 8 -14 8 -5 0
-11 -4 -14 -8z"/>
<path d="M2146 3062 c-3 -5 1 -9 9 -9 8 0 12 4 9 9 -3 4 -7 8 -9 8 -2 0 -6 -4
-9 -8z"/>
<path d="M2085 3039 c-3 -4 2 -6 10 -5 21 3 28 13 10 13 -9 0 -18 -4 -20 -8z"/>
<path d="M1376 3018 c3 -5 10 -6 15 -3 13 9 11 12 -6 12 -8 0 -12 -4 -9 -9z"/>
<path d="M1435 3019 c-3 -4 2 -6 10 -5 21 3 28 13 10 13 -9 0 -18 -4 -20 -8z"/>
<path d="M1916 3018 c3 -5 10 -6 15 -3 13 9 11 12 -6 12 -8 0 -12 -4 -9 -9z"/>
<path d="M2816 3018 c3 -5 10 -6 15 -3 13 9 11 12 -6 12 -8 0 -12 -4 -9 -9z"/>
<path d="M1714 3009 c-3 -6 -2 -15 3 -20 5 -5 9 -1 9 11 0 23 -2 24 -12 9z"/>
<path d="M2055 3009 c-4 -6 -5 -12 -2 -15 2 -3 7 2 10 11 7 17 1 20 -8 4z"/>
<path d="M1213 2991 c0 -11 5 -18 9 -15 4 3 5 11 1 19 -7 21 -12 19 -10 -4z"/>
<path d="M1670 2999 c0 -5 5 -7 10 -4 6 3 10 8 10 11 0 2 -4 4 -10 4 -5 0 -10
-5 -10 -11z"/>
<path d="M1853 2993 c0 -9 4 -10 12 -3 7 6 20 8 29 4 9 -3 16 -2 16 3 0 5 -13
9 -28 9 -17 0 -29 -5 -29 -13z"/>
<path d="M1932 3001 c-11 -7 -11 -9 0 -14 9 -3 15 1 15 9 0 8 -1 14 -1 14 -1
0 -7 -4 -14 -9z"/>
<path d="M2090 3006 c0 -2 7 -7 16 -10 8 -3 12 -2 9 4 -6 10 -25 14 -25 6z"/>
<path d="M2139 2993 c-13 -16 -12 -17 4 -4 9 7 17 15 17 17 0 8 -8 3 -21 -13z"/>
<path d="M2016 2983 c-6 -14 -5 -15 5 -6 7 7 10 15 7 18 -3 3 -9 -2 -12 -12z"/>
<path d="M2515 2991 c-3 -5 -2 -12 3 -15 5 -3 9 1 9 9 0 17 -3 19 -12 6z"/>
<path d="M1294 2976 c1 -8 5 -18 8 -22 4 -3 5 1 4 10 -1 8 -5 18 -8 22 -4 3
-5 -1 -4 -10z"/>
<path d="M1615 2979 c-3 -4 2 -6 10 -5 21 3 28 13 10 13 -9 0 -18 -4 -20 -8z"/>
<path d="M2070 2979 c0 -5 5 -7 10 -4 6 3 10 8 10 11 0 2 -4 4 -10 4 -5 0 -10
-5 -10 -11z"/>
<path d="M2160 2980 c-9 -6 -10 -10 -3 -10 6 0 15 5 18 10 8 12 4 12 -15 0z"/>
<path d="M2286 2978 c3 -5 10 -6 15 -3 13 9 11 12 -6 12 -8 0 -12 -4 -9 -9z"/>
<path d="M2335 2979 c-3 -4 2 -6 10 -5 21 3 28 13 10 13 -9 0 -18 -4 -20 -8z"/>
<path d="M1111 2967 c-8 -10 -7 -14 2 -14 8 0 14 6 14 14 0 7 -1 13 -2 13 -2
0 -8 -6 -14 -13z"/>
<path d="M2746 2962 c-3 -5 1 -9 9 -9 8 0 12 4 9 9 -3 4 -7 8 -9 8 -2 0 -6 -4
-9 -8z"/>
<path d="M2850 2959 c0 -5 5 -7 10 -4 6 3 10 8 10 11 0 2 -4 4 -10 4 -5 0 -10
-5 -10 -11z"/>
<path d="M2996 2958 c3 -5 10 -6 15 -3 13 9 11 12 -6 12 -8 0 -12 -4 -9 -9z"/>
<path d="M1731 2807 c2 -1 14 -10 26 -20 17 -15 23 -16 29 -5 4 7 4 10 -1 6
-4 -4 -14 -1 -22 7 -8 8 -19 15 -25 15 -6 0 -9 -1 -7 -3z"/>
<path d="M1800 2800 c0 -5 5 -10 11 -10 5 0 7 5 4 10 -3 6 -8 10 -11 10 -2 0
-4 -4 -4 -10z"/>
<path d="M1836 2802 c-10 -17 27 -24 43 -7 9 9 11 15 4 15 -6 0 -14 -6 -16
-12 -4 -10 -8 -10 -15 1 -6 8 -12 9 -16 3z"/>
<path d="M1886 2783 c-15 -13 -33 -20 -39 -17 -7 4 -9 4 -5 -1 4 -4 -3 -18
-17 -31 -22 -20 -22 -23 -6 -21 11 1 17 5 15 9 -3 4 0 8 6 8 6 0 10 -7 8 -17
-4 -19 -37 -26 -55 -11 -8 6 -16 8 -20 5 -3 -4 2 -9 11 -13 16 -6 16 -8 0 -25
-10 -11 -12 -19 -6 -19 7 0 12 5 12 11 0 5 5 7 10 4 16 -10 -10 -37 -27 -31
-8 4 -11 1 -8 -5 4 -6 13 -8 21 -5 8 3 17 0 20 -7 2 -7 14 -14 27 -14 12 -1
17 1 10 5 -8 5 -8 12 3 26 10 14 14 16 14 5 0 -12 2 -12 10 1 9 13 10 13 10 0
1 -12 3 -11 11 3 6 10 15 14 22 10 9 -5 9 -3 0 8 -10 12 -10 18 -1 27 9 9 9
12 0 12 -7 0 -15 -6 -18 -13 -5 -13 -34 -20 -34 -8 1 18 18 29 60 36 8 1 14
11 14 24 -1 11 4 21 10 21 6 0 3 5 -7 11 -9 5 -22 7 -28 3 -7 -4 -10 -1 -7 7
3 8 10 14 16 14 5 0 13 3 16 6 18 18 -25 2 -48 -18z m9 -23 c-3 -5 -1 -10 4
-10 6 0 11 5 11 10 0 6 4 10 8 10 12 0 10 -47 -2 -48 -6 0 -21 -3 -33 -5 -28
-7 -41 23 -17 40 21 15 38 17 29 3z m-39 -77 c-1 -13 6 -18 22 -17 12 1 20 -1
17 -5 -4 -3 -15 -6 -25 -6 -11 0 -25 -9 -33 -19 -14 -19 -43 -14 -31 5 3 5 8
7 12 5 4 -2 12 2 19 9 10 10 9 14 -3 19 -9 3 -12 1 -9 -4 3 -6 2 -10 -4 -10
-14 0 -25 20 -12 21 26 3 30 4 37 12 11 10 12 9 10 -10z"/>
<path d="M1864 2739 c-3 -5 3 -6 12 -2 12 5 15 3 9 -6 -6 -10 -3 -11 14 -2 11
7 21 13 21 14 0 7 -51 3 -56 -4z"/>
<path d="M1680 2780 c-9 -6 -10 -10 -3 -10 6 0 15 5 18 10 8 12 4 12 -15 0z"/>
<path d="M1713 2768 c-1 -10 3 -18 9 -18 6 0 8 3 5 7 -4 3 -2 11 3 18 7 8 6
12 -3 12 -7 0 -14 -9 -14 -19z"/>
<path d="M1789 2763 c-13 -16 -12 -17 4 -4 9 7 17 15 17 17 0 8 -8 3 -21 -13z"/>
<path d="M1807 2754 c-10 -14 -23 -21 -29 -18 -7 4 -8 2 -4 -4 9 -15 28 -6 44
19 19 30 10 32 -11 3z"/>
<path d="M1395 2760 c3 -5 8 -10 11 -10 2 0 4 5 4 10 0 6 -5 10 -11 10 -5 0
-7 -4 -4 -10z"/>
<path d="M1737 2724 c6 -15 23 -19 23 -5 0 5 -7 11 -14 14 -10 4 -13 1 -9 -9z"/>
<path d="M1584 2722 c4 -3 14 -7 22 -8 9 -1 13 0 10 4 -4 3 -14 7 -22 8 -9 1
-13 0 -10 -4z"/>
<path d="M1710 2700 c0 -5 5 -10 10 -10 6 0 10 5 10 10 0 6 -4 10 -10 10 -5 0
-10 -4 -10 -10z"/>
<path d="M1757 2683 c-4 -3 -7 -11 -7 -17 0 -6 5 -5 12 2 6 6 9 14 7 17 -3 3
-9 2 -12 -2z"/>
<path d="M1715 2670 c-3 -5 -1 -10 4 -10 6 0 11 5 11 10 0 6 -2 10 -4 10 -3 0
-8 -4 -11 -10z"/>
<path d="M1566 2662 c-3 -5 1 -9 9 -9 8 0 12 4 9 9 -3 4 -7 8 -9 8 -2 0 -6 -4
-9 -8z"/>
<path d="M990 2656 c0 -2 8 -10 18 -17 15 -13 16 -12 3 4 -13 16 -21 21 -21
13z"/>
<path d="M1316 2642 c-3 -5 1 -9 9 -9 8 0 12 4 9 9 -3 4 -7 8 -9 8 -2 0 -6 -4
-9 -8z"/>
<path d="M1647 2639 c7 -7 15 -10 18 -7 3 3 -2 9 -12 12 -14 6 -15 5 -6 -5z"/>
<path d="M1684 2642 c4 -3 14 -7 22 -8 9 -1 13 0 10 4 -4 3 -14 7 -22 8 -9 1
-13 0 -10 -4z"/>
<path d="M1730 2640 c0 -5 5 -10 10 -10 6 0 10 5 10 10 0 6 -4 10 -10 10 -5 0
-10 -4 -10 -10z"/>
<path d="M1560 2620 c-12 -7 -10 -9 7 -7 12 0 19 5 17 9 -6 10 -6 10 -24 -2z"/>
<path d="M1615 2620 c-3 -5 -1 -10 4 -10 6 0 11 5 11 10 0 6 -2 10 -4 10 -3 0
-8 -4 -11 -10z"/>
<path d="M836 2587 c3 -10 9 -15 12 -12 3 3 0 11 -7 18 -10 9 -11 8 -5 -6z"/>
<path d="M910 2579 c0 -5 5 -7 10 -4 6 3 10 8 10 11 0 2 -4 4 -10 4 -5 0 -10
-5 -10 -11z"/>
<path d="M2110 2800 c-12 -7 -10 -9 7 -7 12 0 19 5 17 9 -6 10 -6 10 -24 -2z"/>
<path d="M2367 2799 c7 -7 15 -10 18 -7 3 3 -2 9 -12 12 -14 6 -15 5 -6 -5z"/>
<path d="M2150 2789 c0 -5 5 -7 10 -4 6 3 10 8 10 11 0 2 -4 4 -10 4 -5 0 -10
-5 -10 -11z"/>
<path d="M2175 2780 c-3 -5 -3 -10 2 -10 4 0 1 -5 -7 -11 -10 -7 -11 -9 -2 -7
8 2 13 8 12 13 -1 6 9 13 22 17 23 6 23 6 1 7 -12 1 -25 -3 -28 -9z"/>
<path d="M2202 2758 c-15 -15 -15 -28 0 -28 6 0 8 3 5 7 -4 3 -2 12 4 20 14
16 7 17 -9 1z"/>
<path d="M2231 2765 c4 -3 19 -8 35 -11 16 -3 26 -2 23 1 -4 3 -19 8 -35 11
-16 3 -26 2 -23 -1z"/>
<path d="M2835 2749 c-4 -6 -5 -12 -2 -15 2 -3 7 2 10 11 7 17 1 20 -8 4z"/>
<path d="M2220 2721 c0 -5 7 -11 14 -14 10 -4 13 -1 9 9 -6 15 -23 19 -23 5z"/>
<path d="M2667 2719 c7 -7 15 -10 18 -7 3 3 -2 9 -12 12 -14 6 -15 5 -6 -5z"/>
<path d="M2230 2640 c0 -5 7 -10 16 -10 9 0 12 -5 8 -12 -4 -7 -3 -8 4 -4 16
10 15 14 -8 26 -14 7 -20 7 -20 0z"/>
<path d="M2370 2639 c0 -5 5 -7 10 -4 6 3 10 8 10 11 0 2 -4 4 -10 4 -5 0 -10
-5 -10 -11z"/>
<path d="M2086 2751 c-4 -6 -11 -9 -16 -6 -4 3 -13 -2 -19 -9 -8 -10 -9 -16
-1 -21 6 -3 8 -10 5 -15 -3 -5 -1 -11 5 -15 6 -4 8 -10 5 -15 -12 -19 15 -19
28 0 7 11 17 17 21 13 4 -4 4 1 0 11 -5 13 -4 17 4 12 6 -3 14 -1 18 5 4 8 3
9 -4 5 -7 -4 -12 -3 -12 1 0 5 -6 17 -13 28 -10 13 -16 15 -21 6z m7 -18 c-4
-11 -3 -14 5 -9 7 4 12 2 12 -3 0 -6 -5 -11 -11 -11 -5 0 -8 -4 -5 -9 3 -4 -2
-17 -10 -27 -9 -10 -13 -14 -10 -7 4 6 2 14 -4 18 -6 4 -8 10 -5 15 3 5 1 11
-5 15 -6 4 -8 11 -4 16 3 5 9 7 14 4 5 -3 11 -1 15 5 10 16 15 12 8 -7z"/>
<path d="M2067 2719 c7 -7 15 -10 18 -7 3 3 -2 9 -12 12 -14 6 -15 5 -6 -5z"/>
<path d="M2435 2421 c-3 -5 -2 -12 3 -15 5 -3 9 1 9 9 0 17 -3 19 -12 6z"/>
<path d="M2515 2420 c3 -5 8 -10 11 -10 2 0 4 5 4 10 0 6 -5 10 -11 10 -5 0
-7 -4 -4 -10z"/>
<path d="M2466 2402 c-3 -5 1 -9 9 -9 8 0 12 4 9 9 -3 4 -7 8 -9 8 -2 0 -6 -4
-9 -8z"/>
<path d="M2636 2378 c3 -5 10 -6 15 -3 13 9 11 12 -6 12 -8 0 -12 -4 -9 -9z"/>
<path d="M2465 2361 c17 -21 18 -24 3 -18 -23 8 -23 0 0 -12 15 -8 18 -6 18
14 0 14 -2 22 -5 20 -2 -3 -11 1 -20 7 -9 7 -7 2 4 -11z"/>
<path d="M2230 2361 c0 -6 9 -9 19 -8 11 0 17 5 15 9 -7 11 -34 10 -34 -1z"/>
<path d="M2556 2358 c3 -5 10 -6 15 -3 13 9 11 12 -6 12 -8 0 -12 -4 -9 -9z"/>
<path d="M2896 2358 c3 -5 10 -6 15 -3 13 9 11 12 -6 12 -8 0 -12 -4 -9 -9z"/>
<path d="M3006 2358 c3 -5 10 -6 15 -3 13 9 11 12 -6 12 -8 0 -12 -4 -9 -9z"/>
<path d="M2500 2346 c0 -2 8 -10 18 -17 15 -13 16 -12 3 4 -13 16 -21 21 -21
13z"/>
<path d="M2816 2342 c-3 -4 4 -9 15 -9 23 -2 25 3 4 10 -8 4 -16 3 -19 -1z"/>
<path d="M3126 2338 c3 -5 10 -6 15 -3 13 9 11 12 -6 12 -8 0 -12 -4 -9 -9z"/>
<path d="M2915 2331 c-3 -5 -2 -12 3 -15 5 -3 9 1 9 9 0 17 -3 19 -12 6z"/>
<path d="M2750 2320 c0 -5 5 -10 11 -10 5 0 7 5 4 10 -3 6 -8 10 -11 10 -2 0
-4 -4 -4 -10z"/>
<path d="M3014 2316 c1 -8 5 -18 8 -22 4 -3 5 1 4 10 -1 8 -5 18 -8 22 -4 3
-5 -1 -4 -10z"/>
<path d="M2495 2311 c-6 -10 33 -36 42 -28 2 3 -5 8 -16 12 -12 3 -19 11 -16
16 4 5 4 9 1 9 -3 0 -7 -4 -11 -9z"/>
<path d="M2297 2299 c-9 -6 -17 -16 -17 -24 0 -21 43 -13 46 8 3 22 -7 28 -29
16z"/>
<path d="M2640 2295 c-7 -8 -16 -12 -21 -9 -5 3 -9 1 -9 -5 0 -5 9 -9 20 -8
10 1 17 3 15 6 -3 2 0 10 6 18 6 7 9 13 6 13 -2 0 -10 -7 -17 -15z"/>
<path d="M2672 2305 c4 -4 3 -14 -4 -22 -6 -7 -9 -15 -7 -18 3 -2 10 4 17 15
9 15 9 21 -1 26 -6 4 -9 4 -5 -1z"/>
<path d="M2755 2280 c2 -27 10 -33 12 -10 1 11 -2 22 -6 24 -4 3 -7 -4 -6 -14z"/>
<path d="M2870 2286 c0 -2 7 -7 16 -10 8 -3 12 -2 9 4 -6 10 -25 14 -25 6z"/>
<path d="M2913 2275 c0 -8 4 -12 9 -9 5 3 6 10 3 15 -9 13 -12 11 -12 -6z"/>
<path d="M2556 2267 c3 -10 9 -15 12 -12 3 3 0 11 -7 18 -10 9 -11 8 -5 -6z"/>
<path d="M2530 2260 c0 -5 5 -10 11 -10 5 0 7 5 4 10 -3 6 -8 10 -11 10 -2 0
-4 -4 -4 -10z"/>
<path d="M3146 2258 c3 -5 10 -6 15 -3 13 9 11 12 -6 12 -8 0 -12 -4 -9 -9z"/>
<path d="M1616 2435 c-3 -8 0 -17 6 -21 7 -4 8 -3 4 4 -7 12 5 16 34 12 22 -3
6 10 -18 15 -11 2 -23 -3 -26 -10z"/>
<path d="M1393 2425 c0 -8 4 -12 9 -9 5 3 6 10 3 15 -9 13 -12 11 -12 -6z"/>
<path d="M1434 2422 c4 -3 14 -7 22 -8 9 -1 13 0 10 4 -4 3 -14 7 -22 8 -9 1
-13 0 -10 -4z"/>
<path d="M833 2395 c0 -8 4 -12 9 -9 5 3 6 10 3 15 -9 13 -12 11 -12 -6z"/>
<path d="M1225 2400 c-3 -6 1 -7 9 -4 18 7 21 14 7 14 -6 0 -13 -4 -16 -10z"/>
<path d="M1296 2398 c3 -5 10 -6 15 -3 13 9 11 12 -6 12 -8 0 -12 -4 -9 -9z"/>
<path d="M1110 2381 c0 -6 4 -13 10 -16 6 -3 7 1 4 9 -7 18 -14 21 -14 7z"/>
<path d="M1470 2386 c0 -2 7 -7 16 -10 8 -3 12 -2 9 4 -6 10 -25 14 -25 6z"/>
<path d="M1153 2365 c0 -8 4 -12 9 -9 5 3 6 10 3 15 -9 13 -12 11 -12 -6z"/>
<path d="M1194 2366 c1 -8 5 -18 8 -22 4 -3 5 1 4 10 -1 8 -5 18 -8 22 -4 3
-5 -1 -4 -10z"/>
<path d="M1540 2375 c0 -5 5 -17 10 -25 5 -8 10 -10 10 -5 0 6 -5 17 -10 25
-5 8 -10 11 -10 5z"/>
<path d="M1577 2370 c13 -13 56 -23 49 -12 -3 5 -17 12 -32 15 -14 2 -22 1
-17 -3z"/>
<path d="M995 2349 c-4 -6 -5 -12 -2 -15 2 -3 7 2 10 11 7 17 1 20 -8 4z"/>
<path d="M915 2340 c3 -5 8 -10 11 -10 2 0 4 5 4 10 0 6 -5 10 -11 10 -5 0 -7
-4 -4 -10z"/>
<path d="M1506 2337 c3 -10 9 -15 12 -12 3 3 0 11 -7 18 -10 9 -11 8 -5 -6z"/>
<path d="M1315 2329 c-4 -6 -5 -12 -2 -15 2 -3 7 2 10 11 7 17 1 20 -8 4z"/>
<path d="M1060 2325 c0 -2 6 -8 13 -14 10 -8 14 -7 14 2 0 8 -6 14 -14 14 -7
0 -13 -1 -13 -2z"/>
<path d="M1239 2320 c-3 -20 -4 -25 -13 -40 -7 -12 -6 -13 4 -3 13 12 25 53
15 53 -3 0 -6 -4 -6 -10z"/>
<path d="M1276 2322 c-3 -5 1 -9 9 -9 8 0 12 4 9 9 -3 4 -7 8 -9 8 -2 0 -6 -4
-9 -8z"/>
<path d="M1015 2311 c-3 -5 -2 -12 3 -15 5 -3 9 1 9 9 0 17 -3 19 -12 6z"/>
<path d="M1359 2318 c-8 -27 -5 -36 9 -30 10 4 12 7 4 10 -7 2 -10 8 -6 13 3
5 3 9 0 9 -3 0 -6 -1 -7 -2z"/>
<path d="M1413 2305 c0 -8 4 -12 9 -9 5 3 6 10 3 15 -9 13 -12 11 -12 -6z"/>
<path d="M855 2301 c-3 -5 -2 -12 3 -15 5 -3 9 1 9 9 0 17 -3 19 -12 6z"/>
<path d="M1530 2300 c13 -9 7 -14 -12 -11 -5 0 -8 -3 -8 -7 0 -11 51 -35 58
-27 3 3 0 5 -7 5 -7 0 -9 5 -6 10 8 13 -12 40 -29 40 -6 0 -4 -5 4 -10z m20
-20 c0 -5 -5 -10 -11 -10 -5 0 -7 5 -4 10 3 6 8 10 11 10 2 0 4 -4 4 -10z"/>
<path d="M1310 2285 c0 -5 5 -17 10 -25 5 -8 10 -10 10 -5 0 6 -5 17 -10 25
-5 8 -10 11 -10 5z"/>
<path d="M1424 2275 c-4 -8 -11 -12 -17 -8 -6 4 -7 1 -2 -7 6 -10 11 -10 20 3
7 9 16 13 20 9 5 -4 5 -1 1 6 -9 16 -15 15 -22 -3z"/>
<path d="M806 2258 c3 -5 10 -6 15 -3 13 9 11 12 -6 12 -8 0 -12 -4 -9 -9z"/>
<path d="M1455 2260 c-3 -5 -1 -10 4 -10 6 0 11 5 11 10 0 6 -2 10 -4 10 -3 0
-8 -4 -11 -10z"/>
<path d="M1730 2438 c0 -6 3 -8 7 -5 3 4 12 2 19 -4 8 -7 14 -7 19 1 3 5 5 10
3 11 -32 8 -48 7 -48 -3z"/>
<path d="M1741 2384 c-7 -15 -17 -24 -25 -21 -8 3 -26 -8 -41 -23 -16 -16 -31
-27 -36 -25 -4 3 -6 -3 -4 -12 2 -10 4 -21 4 -25 1 -4 13 5 27 19 25 25 27 25
40 9 12 -17 13 -16 28 7 9 13 15 30 13 38 -2 8 -2 11 0 7 3 -5 9 -8 15 -8 6 0
6 6 -2 15 -10 12 -10 18 0 30 7 8 8 15 3 15 -5 0 -15 -12 -22 -26z m-11 -43
c0 -3 -4 -12 -9 -19 -6 -11 -10 -10 -15 4 -4 11 -10 14 -14 9 -4 -6 -18 -19
-32 -30 -16 -13 -13 -7 9 17 19 21 39 34 47 31 8 -3 14 -8 14 -12z"/>
<path d="M2626 2092 c-3 -5 1 -9 9 -9 8 0 12 4 9 9 -3 4 -7 8 -9 8 -2 0 -6 -4
-9 -8z"/>
<path d="M2871 2085 c-1 -17 -3 -18 -12 -5 -9 13 -10 13 -6 -2 3 -9 1 -19 -6
-22 -8 -3 -8 -5 -1 -5 17 -1 37 26 31 41 -3 7 -6 4 -6 -7z"/>
<path d="M2913 2050 c1 -21 10 -18 13 5 1 8 -2 15 -6 15 -5 0 -8 -9 -7 -20z"/>
<path d="M3006 2045 c-18 -14 -18 -14 1 -12 11 0 20 7 20 14 0 7 -1 13 -1 13
-1 0 -9 -7 -20 -15z"/>
<path d="M2866 2041 c-4 -5 3 -7 14 -4 23 6 26 13 6 13 -8 0 -17 -4 -20 -9z"/>
<path d="M2870 1981 c0 -5 5 -13 10 -16 6 -3 10 -2 10 4 0 5 -4 13 -10 16 -5
3 -10 2 -10 -4z"/>
<path d="M2815 1970 c3 -5 8 -10 11 -10 2 0 4 5 4 10 0 6 -5 10 -11 10 -5 0
-7 -4 -4 -10z"/>
<path d="M2846 1964 c-4 -9 -4 -19 -1 -22 3 -3 5 0 5 7 0 7 5 9 10 6 8 -5 7
-12 -1 -22 -11 -12 -15 -13 -23 -1 -6 7 -20 20 -31 28 -11 8 -7 0 9 -18 28
-30 31 -31 48 -15 14 13 16 19 6 32 -7 9 -13 17 -14 19 -1 2 -4 -5 -8 -14z"/>
<path d="M3006 1965 c-18 -14 -18 -14 1 -12 11 0 20 7 20 14 0 7 -1 13 -1 13
-1 0 -9 -7 -20 -15z"/>
<path d="M3110 1960 c0 -5 5 -10 11 -10 5 0 7 5 4 10 -3 6 -8 10 -11 10 -2 0
-4 -4 -4 -10z"/>
<path d="M2637 1929 c-8 -13 -15 -15 -23 -8 -8 7 -15 6 -20 -3 -4 -7 -4 -10 1
-6 4 4 14 3 21 -3 11 -9 15 -7 20 6 4 10 9 13 13 6 4 -6 11 -3 18 8 9 14 8 18
-4 18 -8 0 -20 -8 -26 -18z"/>
<path d="M2976 1927 c3 -10 9 -15 12 -12 3 3 0 11 -7 18 -10 9 -11 8 -5 -6z"/>
<path d="M2746 1913 c-6 -14 -5 -15 5 -6 7 7 10 15 7 18 -3 3 -9 -2 -12 -12z"/>
<path d="M1035 2093 c3 -3 -2 -11 -11 -17 -13 -10 -13 -12 4 -12 19 0 24 19 9
31 -4 3 -5 2 -2 -2z"/>
<path d="M1121 2093 c-1 -6 -4 -20 -7 -30 -5 -17 -5 -17 6 0 6 10 9 23 6 30
-3 9 -5 9 -5 0z"/>
<path d="M1175 2068 c-11 -24 -12 -28 -2 -16 8 10 17 15 20 11 4 -3 15 1 25
10 10 10 22 14 25 10 4 -3 7 -1 7 5 0 17 -10 15 -32 -5 -10 -9 -21 -13 -25 -9
-4 4 -1 11 7 16 10 6 11 10 3 10 -7 0 -20 -15 -28 -32z"/>
<path d="M1265 2080 c1 -8 8 -15 15 -15 7 0 14 7 15 15 2 9 -5 16 -15 16 -10
0 -17 -7 -15 -16z"/>
<path d="M1320 2092 c-5 -2 -10 -8 -10 -13 0 -6 6 -7 13 -2 6 4 22 8 35 9 12
0 25 3 28 6 5 6 -48 6 -66 0z"/>
<path d="M1080 2080 c0 -5 5 -10 11 -10 5 0 7 5 4 10 -3 6 -8 10 -11 10 -2 0
-4 -4 -4 -10z"/>
<path d="M946 2062 c-2 -4 4 -8 14 -8 10 0 16 4 14 8 -3 4 -9 8 -14 8 -5 0
-11 -4 -14 -8z"/>
<path d="M1225 2060 c-3 -6 1 -7 9 -4 18 7 21 14 7 14 -6 0 -13 -4 -16 -10z"/>
<path d="M879 2033 c-13 -16 -12 -17 4 -4 9 7 17 15 17 17 0 8 -8 3 -21 -13z"/>
<path d="M1033 2033 c0 -10 4 -10 16 -1 9 7 18 13 20 15 2 1 -5 1 -16 0 -11 0
-20 -7 -20 -14z"/>
<path d="M819 2028 c-5 -18 -6 -38 -1 -34 7 8 12 36 6 36 -2 0 -4 -1 -5 -2z"/>
<path d="M917 2013 c-10 -9 -9 -23 1 -23 5 0 9 7 9 15 0 17 -1 18 -10 8z"/>
<path d="M960 1996 c-6 -6 -10 -15 -10 -20 0 -6 5 -3 10 6 6 10 19 15 30 13
11 -2 20 0 20 5 0 12 -38 8 -50 -4z"/>
<path d="M1038 1988 c-7 -17 15 -19 29 -3 4 4 3 5 -4 2 -6 -4 -13 -2 -15 5 -3
8 -6 6 -10 -4z"/>
<path d="M1110 1980 c0 -5 5 -10 10 -10 6 0 10 5 10 10 0 6 -4 10 -10 10 -5 0
-10 -4 -10 -10z"/>
<path d="M905 1960 c-3 -6 1 -7 9 -4 18 7 21 14 7 14 -6 0 -13 -4 -16 -10z"/>
<path d="M1070 1960 c0 -5 7 -7 15 -4 8 4 15 8 15 10 0 2 -7 4 -15 4 -8 0 -15
-4 -15 -10z"/>
<path d="M1190 1960 c0 -5 5 -10 11 -10 5 0 7 5 4 10 -3 6 -8 10 -11 10 -2 0
-4 -4 -4 -10z"/>
<path d="M1084 1939 c-5 -8 -3 -9 6 -4 10 6 12 4 7 -8 -3 -10 -2 -17 3 -17 13
0 13 27 1 35 -5 3 -13 0 -17 -6z"/>
<path d="M1281 1936 c-11 -13 -5 -26 12 -26 5 0 6 8 3 18 -5 14 -4 14 9 -2 11
-14 15 -16 15 -5 0 12 2 12 10 -1 9 -13 10 -13 10 0 0 13 1 13 11 0 9 -13 10
-13 6 0 -2 8 -9 16 -15 16 -7 1 -13 2 -14 4 -11 8 -39 6 -47 -4z"/>
<path d="M1187 1927 c-3 -8 0 -14 7 -14 7 0 13 6 13 14 0 7 -4 13 -8 13 -4 0
-9 -6 -12 -13z"/>
<path d="M1135 1920 c-3 -5 -2 -10 4 -10 5 0 13 5 16 10 3 6 2 10 -4 10 -5 0
-13 -4 -16 -10z"/>
<path d="M935 1751 c-3 -5 -2 -12 3 -15 5 -3 9 1 9 9 0 17 -3 19 -12 6z"/>
<path d="M1401 1753 c-1 -17 16 -25 25 -12 4 7 3 9 -4 5 -5 -3 -13 0 -15 6 -4
9 -6 10 -6 1z"/>
<path d="M846 1738 c3 -5 10 -6 15 -3 13 9 11 12 -6 12 -8 0 -12 -4 -9 -9z"/>
<path d="M1200 1740 c-9 -6 -10 -10 -3 -10 6 0 15 5 18 10 8 12 4 12 -15 0z"/>
<path d="M1238 1743 c7 -3 16 -2 19 1 4 3 -2 6 -13 5 -11 0 -14 -3 -6 -6z"/>
<path d="M1379 1748 c0 -2 -2 -13 -3 -25 -2 -19 0 -21 12 -11 9 8 10 14 3 16
-6 2 -9 8 -5 13 3 5 3 9 0 9 -3 0 -6 -1 -7 -2z"/>
<path d="M1340 1730 c0 -5 -7 -7 -15 -4 -8 4 -15 1 -15 -7 0 -7 3 -9 7 -6 3 4
11 3 17 -3 8 -6 12 -3 13 11 1 10 0 19 -3 19 -2 0 -4 -4 -4 -10z"/>
<path d="M1481 1714 c0 -11 3 -14 6 -6 3 7 2 16 -1 19 -3 4 -6 -2 -5 -13z"/>
<path d="M935 1701 c-3 -5 -2 -12 3 -15 5 -3 9 1 9 9 0 17 -3 19 -12 6z"/>
<path d="M966 1698 c3 -5 10 -6 15 -3 13 9 11 12 -6 12 -8 0 -12 -4 -9 -9z"/>
<path d="M1046 1702 c-3 -5 1 -9 9 -9 8 0 12 4 9 9 -3 4 -7 8 -9 8 -2 0 -6 -4
-9 -8z"/>
<path d="M1399 1693 c-13 -16 -12 -17 4 -4 9 7 17 15 17 17 0 8 -8 3 -21 -13z"/>
<path d="M1094 1676 c1 -8 5 -18 8 -22 4 -3 5 1 4 10 -1 8 -5 18 -8 22 -4 3
-5 -1 -4 -10z"/>
<path d="M1416 1673 c-6 -14 -5 -15 5 -6 7 7 10 15 7 18 -3 3 -9 -2 -12 -12z"/>
<path d="M1444 1682 c4 -3 14 -7 22 -8 9 -1 13 0 10 4 -4 3 -14 7 -22 8 -9 1
-13 0 -10 -4z"/>
<path d="M1514 1676 c1 -8 5 -18 8 -22 4 -3 5 1 4 10 -1 8 -5 18 -8 22 -4 3
-5 -1 -4 -10z"/>
<path d="M1568 1683 c6 -3 12 -9 12 -14 0 -6 -4 -8 -8 -5 -4 2 -14 1 -22 -4
-11 -7 -9 -9 8 -7 32 2 49 32 19 34 -12 0 -16 -1 -9 -4z"/>
<path d="M1253 1665 c0 -8 4 -12 9 -9 5 3 6 10 3 15 -9 13 -12 11 -12 -6z"/>
<path d="M1670 1676 c0 -2 7 -7 16 -10 8 -3 12 -2 9 4 -6 10 -25 14 -25 6z"/>
<path d="M1006 1658 c3 -5 10 -6 15 -3 13 9 11 12 -6 12 -8 0 -12 -4 -9 -9z"/>
<path d="M1156 1662 c-3 -5 1 -9 9 -9 8 0 12 4 9 9 -3 4 -7 8 -9 8 -2 0 -6 -4
-9 -8z"/>
<path d="M1479 1653 c-13 -16 -12 -17 4 -4 9 7 17 15 17 17 0 8 -8 3 -21 -13z"/>
<path d="M1339 1648 c-5 -18 -6 -38 -1 -34 7 8 12 36 6 36 -2 0 -4 -1 -5 -2z"/>
<path d="M1370 1645 c0 -5 5 -17 10 -25 5 -8 10 -10 10 -5 0 6 -5 17 -10 25
-5 8 -10 11 -10 5z"/>
<path d="M1535 1609 c-4 -6 -5 -12 -2 -15 2 -3 7 2 10 11 7 17 1 20 -8 4z"/>
<path d="M1220 1606 c0 -2 8 -10 18 -17 15 -13 16 -12 3 4 -13 16 -21 21 -21
13z"/>
<path d="M1754 1595 c-10 -8 -15 -15 -10 -15 5 0 3 -6 -3 -14 -10 -11 -9 -14
1 -12 7 1 18 5 25 9 6 4 14 3 18 -3 8 -13 25 -13 25 0 0 6 -6 9 -12 8 -7 -2
-13 5 -13 14 0 25 -9 29 -31 13z m21 -5 c-3 -5 -12 -10 -18 -10 -7 0 -6 4 3
10 19 12 23 12 15 0z"/>
<path d="M1446 1582 c-3 -5 1 -9 9 -9 8 0 12 4 9 9 -3 4 -7 8 -9 8 -2 0 -6 -4
-9 -8z"/>
<path d="M1586 1558 c3 -5 10 -6 15 -3 13 9 11 12 -6 12 -8 0 -12 -4 -9 -9z"/>
<path d="M2450 1746 c7 -7 13 -7 20 0 6 6 3 10 -10 10 -13 0 -16 -4 -10 -10z"/>
<path d="M2679 1758 c-5 -19 -8 -50 -4 -46 7 7 15 48 9 48 -2 0 -4 -1 -5 -2z"/>
<path d="M2795 1751 c-3 -5 -2 -12 3 -15 5 -3 9 1 9 9 0 17 -3 19 -12 6z"/>
<path d="M2574 1739 c-12 -20 12 -31 27 -12 13 17 13 17 -5 3 -18 -14 -19 -13
-13 3 7 19 2 23 -9 6z"/>
<path d="M2635 1740 c-16 -7 -17 -9 -3 -9 9 -1 20 4 23 9 7 11 7 11 -20 0z"/>
<path d="M2251 1716 c-8 -10 -9 -16 -1 -21 5 -3 10 -1 10 4 0 6 7 11 16 11 8
0 12 5 9 10 -9 14 -20 12 -34 -4z"/>
<path d="M2460 1726 c0 -2 7 -6 15 -10 8 -3 15 -1 15 4 0 6 -7 10 -15 10 -8 0
-15 -2 -15 -4z"/>
<path d="M3135 1720 c3 -5 8 -10 11 -10 2 0 4 5 4 10 0 6 -5 10 -11 10 -5 0
-7 -4 -4 -10z"/>
<path d="M2508 1703 c7 -3 16 -2 19 1 4 3 -2 6 -13 5 -11 0 -14 -3 -6 -6z"/>
<path d="M2600 1695 c-7 -9 -11 -17 -9 -20 3 -2 10 5 17 15 14 24 10 26 -8 5z"/>
<path d="M2966 1702 c-3 -5 1 -9 9 -9 8 0 12 4 9 9 -3 4 -7 8 -9 8 -2 0 -6 -4
-9 -8z"/>
<path d="M3046 1698 c3 -5 10 -6 15 -3 13 9 11 12 -6 12 -8 0 -12 -4 -9 -9z"/>
<path d="M2534 1689 c-3 -6 -2 -15 3 -20 5 -5 9 -1 9 11 0 23 -2 24 -12 9z"/>
<path d="M2490 1678 c0 -4 4 -8 9 -8 6 0 12 4 15 8 3 5 -1 9 -9 9 -8 0 -15 -4
-15 -9z"/>
<path d="M2640 1680 c-9 -6 -10 -10 -3 -10 6 0 15 5 18 10 8 12 4 12 -15 0z"/>
<path d="M3010 1680 c0 -5 5 -10 11 -10 5 0 7 5 4 10 -3 6 -8 10 -11 10 -2 0
-4 -4 -4 -10z"/>
<path d="M2241 1656 c-9 -11 -8 -15 5 -20 22 -8 23 -8 20 9 -3 23 -12 27 -25
11z"/>
<path d="M2714 1662 c4 -3 14 -7 22 -8 9 -1 13 0 10 4 -4 3 -14 7 -22 8 -9 1
-13 0 -10 -4z"/>
<path d="M2796 1653 c-6 -14 -5 -15 5 -6 7 7 10 15 7 18 -3 3 -9 -2 -12 -12z"/>
<path d="M2915 1660 c-3 -5 -1 -10 4 -10 6 0 11 5 11 10 0 6 -2 10 -4 10 -3 0
-8 -4 -11 -10z"/>
<path d="M2590 1656 c0 -2 8 -10 18 -17 15 -13 16 -12 3 4 -13 16 -21 21 -21
13z"/>
<path d="M2420 1640 c8 -5 20 -10 25 -10 6 0 3 5 -5 10 -8 5 -19 10 -25 10 -5
0 -3 -5 5 -10z"/>
<path d="M2876 1642 c-3 -5 1 -9 9 -9 8 0 12 4 9 9 -3 4 -7 8 -9 8 -2 0 -6 -4
-9 -8z"/>
<path d="M2390 1629 c0 -5 -6 -7 -12 -3 -7 4 -10 3 -5 -1 4 -5 16 -9 27 -10
15 -1 17 1 9 12 -14 16 -19 17 -19 2z"/>
<path d="M2995 1629 c-4 -6 -5 -12 -2 -15 2 -3 7 2 10 11 7 17 1 20 -8 4z"/>
<path d="M2470 1620 c0 -5 5 -10 11 -10 5 0 7 5 4 10 -3 6 -8 10 -11 10 -2 0
-4 -4 -4 -10z"/>
<path d="M2526 1618 c3 -5 10 -6 15 -3 13 9 11 12 -6 12 -8 0 -12 -4 -9 -9z"/>
<path d="M2710 1625 c0 -5 5 -17 10 -25 5 -8 10 -10 10 -5 0 6 -5 17 -10 25
-5 8 -10 11 -10 5z"/>
<path d="M2187 1590 c-6 -22 18 -49 25 -28 6 17 -2 48 -12 48 -4 0 -10 -9 -13
-20z"/>
<path d="M2866 1598 c3 -5 10 -6 15 -3 13 9 11 12 -6 12 -8 0 -12 -4 -9 -9z"/>
<path d="M3100 1600 c-9 -6 -10 -10 -3 -10 6 0 15 5 18 10 8 12 4 12 -15 0z"/>
<path d="M2335 1560 c3 -5 8 -10 11 -10 2 0 4 5 4 10 0 6 -5 10 -11 10 -5 0
-7 -4 -4 -10z"/>
<path d="M2430 1559 c0 -5 5 -7 10 -4 6 3 10 8 10 11 0 2 -4 4 -10 4 -5 0 -10
-5 -10 -11z"/>
<path d="M1690 1616 c0 -2 8 -10 18 -17 15 -13 16 -12 3 4 -13 16 -21 21 -21
13z"/>
<path d="M1770 1390 c0 -6 -4 -8 -10 -5 -5 3 -10 1 -10 -4 0 -13 10 -14 29 -2
9 6 10 11 2 15 -6 4 -11 2 -11 -4z"/>
<path d="M1822 1383 c9 -12 9 -14 -3 -13 -28 4 -38 0 -49 -22 -10 -21 -10 -21
3 -5 15 18 32 24 22 7 -3 -5 0 -10 7 -11 7 0 3 -4 -9 -9 -24 -10 -30 -25 -14
-35 14 -8 41 35 33 54 -5 14 -3 14 11 3 9 -8 21 -11 26 -8 5 4 12 2 16 -4 5
-9 1 -11 -20 -10 -8 1 -55 -56 -55 -66 0 -4 6 1 14 12 8 10 18 16 21 12 4 -4
0 -14 -9 -23 -22 -22 -21 -32 2 -13 9 9 28 14 42 13 14 -1 31 2 38 8 8 6 12 6
12 -1 0 -6 -5 -14 -10 -17 -6 -4 -8 -16 -4 -28 6 -19 5 -20 -8 -9 -13 10 -17
10 -22 -4 -4 -10 -2 -22 4 -28 8 -8 9 -6 5 7 -4 10 -2 17 4 17 6 0 11 -7 11
-15 0 -8 4 -15 10 -15 5 0 6 7 3 17 -4 10 -2 14 4 10 16 -10 40 2 40 20 0 13
-2 13 -14 -2 -7 -10 -16 -16 -19 -12 -4 4 -2 13 5 21 9 11 9 15 -1 19 -10 4
-10 6 1 6 11 1 11 4 1 16 -10 12 -10 15 1 15 11 0 11 2 -1 10 -13 9 -13 10 0
10 13 0 13 1 0 10 -13 8 -13 10 0 10 9 0 6 6 -9 16 -18 13 -20 18 -10 25 11 7
11 9 2 10 -16 2 -32 6 -35 9 -2 1 -15 3 -30 4 -23 2 -26 0 -16 -11z m48 -3 c3
-1 10 -1 15 0 6 1 7 -2 3 -6 -4 -4 -2 -14 4 -22 16 -19 18 -61 4 -70 -19 -11
-40 -11 -53 0 -17 14 -16 25 1 31 10 4 13 1 10 -7 -3 -8 1 -17 8 -22 7 -4 10
-4 6 0 -4 5 -3 18 2 31 10 25 -4 47 -26 38 -8 -3 -12 2 -11 15 1 17 13 21 37
12z m-70 -64 c0 -3 -4 -8 -10 -11 -5 -3 -10 -1 -10 4 0 6 5 11 10 11 6 0 10
-2 10 -4z"/>
<path d="M1845 1369 c-5 -7 -4 -10 2 -6 11 7 42 -21 41 -38 0 -5 -4 -15 -9
-22 -7 -7 -6 -14 1 -18 12 -7 11 -8 14 27 3 32 -37 78 -49 57z"/>
<path d="M975 1360 c3 -5 8 -10 11 -10 2 0 4 5 4 10 0 6 -5 10 -11 10 -5 0 -7
-4 -4 -10z"/>
<path d="M1190 1360 c0 -5 5 -10 11 -10 5 0 7 5 4 10 -3 6 -8 10 -11 10 -2 0
-4 -4 -4 -10z"/>
<path d="M1646 1358 c3 -5 10 -6 15 -3 13 9 11 12 -6 12 -8 0 -12 -4 -9 -9z"/>
<path d="M1710 1350 c-6 -11 -9 -20 -8 -20 2 0 11 9 21 20 9 11 13 20 7 20 -5
0 -14 -9 -20 -20z"/>
<path d="M1679 1355 c-1 -3 -2 -8 -3 -12 -1 -5 -4 -13 -8 -19 -4 -6 -1 -11 5
-11 7 0 13 11 13 24 0 21 -4 31 -7 18z"/>
<path d="M1615 1340 c-3 -5 -1 -10 4 -10 6 0 11 5 11 10 0 6 -2 10 -4 10 -3 0
-8 -4 -11 -10z"/>
<path d="M1740 1330 c6 -11 13 -20 16 -20 2 0 0 9 -6 20 -6 11 -13 20 -16 20
-2 0 0 -9 6 -20z"/>
<path d="M979 1328 c-5 -18 -6 -38 -1 -34 7 8 12 36 6 36 -2 0 -4 -1 -5 -2z"/>
<path d="M1390 1320 c0 -5 5 -10 11 -10 5 0 7 5 4 10 -3 6 -8 10 -11 10 -2 0
-4 -4 -4 -10z"/>
<path d="M1579 1328 c-5 -18 -6 -38 -1 -34 7 8 12 36 6 36 -2 0 -4 -1 -5 -2z"/>
<path d="M1190 1299 c0 -5 5 -7 10 -4 6 3 10 8 10 11 0 2 -4 4 -10 4 -5 0 -10
-5 -10 -11z"/>
<path d="M1235 1300 c3 -5 8 -10 11 -10 2 0 4 5 4 10 0 6 -5 10 -11 10 -5 0
-7 -4 -4 -10z"/>
<path d="M1736 1297 c3 -10 9 -15 12 -12 3 3 0 11 -7 18 -10 9 -11 8 -5 -6z"/>
<path d="M1715 1291 c6 -11 4 -13 -8 -8 -23 9 -21 0 2 -13 15 -7 19 -7 17 5
-1 8 -6 18 -11 22 -4 5 -5 2 0 -6z"/>
<path d="M930 1280 c0 -5 5 -10 11 -10 5 0 7 5 4 10 -3 6 -8 10 -11 10 -2 0
-4 -4 -4 -10z"/>
<path d="M1761 1274 c0 -11 3 -14 6 -6 3 7 2 16 -1 19 -3 4 -6 -2 -5 -13z"/>
<path d="M1014 1256 c1 -8 5 -18 8 -22 4 -3 5 1 4 10 -1 8 -5 18 -8 22 -4 3
-5 -1 -4 -10z"/>
<path d="M1126 1262 c-3 -5 1 -9 9 -9 8 0 12 4 9 9 -3 4 -7 8 -9 8 -2 0 -6 -4
-9 -8z"/>
<path d="M1615 1260 c3 -5 8 -10 11 -10 2 0 4 5 4 10 0 6 -5 10 -11 10 -5 0
-7 -4 -4 -10z"/>
<path d="M1696 1246 c3 -8 13 -17 22 -21 13 -5 13 -2 -3 15 -21 24 -26 25 -19
6z"/>
<path d="M1570 1239 c0 -5 5 -7 10 -4 6 3 10 8 10 11 0 2 -4 4 -10 4 -5 0 -10
-5 -10 -11z"/>
<path d="M1756 1238 c3 -4 0 -8 -7 -8 -7 0 -10 -3 -6 -6 3 -3 16 1 28 9 22 16
22 16 1 14 -11 0 -18 -5 -16 -9z"/>
<path d="M1830 1241 c1 -20 16 -26 31 -10 15 15 15 17 -7 17 -13 0 -24 -3 -24
-7z"/>
<path d="M1635 1231 c-3 -5 -2 -12 3 -15 5 -3 9 1 9 9 0 17 -3 19 -12 6z"/>
<path d="M1296 1218 c3 -4 11 -5 19 -1 21 7 19 12 -4 10 -11 0 -18 -5 -15 -9z"/>
<path d="M1696 1207 c3 -10 9 -15 12 -12 3 3 0 11 -7 18 -10 9 -11 8 -5 -6z"/>
<path d="M1596 1202 c-3 -5 1 -9 9 -9 8 0 12 4 9 9 -3 4 -7 8 -9 8 -2 0 -6 -4
-9 -8z"/>
<path d="M2935 1381 c-3 -5 -2 -12 3 -15 5 -3 9 1 9 9 0 17 -3 19 -12 6z"/>
<path d="M2299 1378 c-5 -18 -6 -38 -1 -34 7 8 12 36 6 36 -2 0 -4 -1 -5 -2z"/>
<path d="M2251 1354 c0 -11 3 -14 6 -6 3 7 2 16 -1 19 -3 4 -6 -2 -5 -13z"/>
<path d="M3026 1358 c3 -5 10 -6 15 -3 13 9 11 12 -6 12 -8 0 -12 -4 -9 -9z"/>
<path d="M2379 1348 c-5 -18 -6 -38 -1 -34 7 8 12 36 6 36 -2 0 -4 -1 -5 -2z"/>
<path d="M2910 1340 c0 -5 5 -10 11 -10 5 0 7 5 4 10 -3 6 -8 10 -11 10 -2 0
-4 -4 -4 -10z"/>
<path d="M3096 1342 c-3 -5 1 -9 9 -9 8 0 12 4 9 9 -3 4 -7 8 -9 8 -2 0 -6 -4
-9 -8z"/>
<path d="M2319 1338 c-5 -18 -6 -38 -1 -34 7 8 12 36 6 36 -2 0 -4 -1 -5 -2z"/>
<path d="M2765 1320 c-3 -6 1 -7 9 -4 18 7 21 14 7 14 -6 0 -13 -4 -16 -10z"/>
<path d="M2975 1320 c3 -5 8 -10 11 -10 2 0 4 5 4 10 0 6 -5 10 -11 10 -5 0
-7 -4 -4 -10z"/>
<path d="M3057 1315 c-4 -8 -3 -16 1 -19 4 -3 9 4 9 15 2 23 -3 25 -10 4z"/>
<path d="M2277 1297 c4 -6 0 -8 -10 -4 -10 4 -14 2 -11 -7 3 -7 11 -13 19 -13
8 0 13 3 10 5 -3 3 0 10 5 17 7 8 5 12 -5 12 -8 0 -11 -5 -8 -10z"/>
<path d="M2939 1308 c-5 -15 -4 -50 1 -53 3 -2 6 9 6 26 0 24 -3 37 -7 27z"/>
<path d="M2355 1291 c-3 -5 -2 -12 3 -15 5 -3 9 1 9 9 0 17 -3 19 -12 6z"/>
<path d="M2233 1240 c0 -16 3 -30 7 -30 3 0 6 14 6 30 0 17 -3 30 -6 30 -4 0
-7 -13 -7 -30z"/>
<path d="M2330 1259 c0 -5 5 -7 10 -4 6 3 10 8 10 11 0 2 -4 4 -10 4 -5 0 -10
-5 -10 -11z"/>
<path d="M3099 1268 c-5 -18 -6 -38 -1 -34 7 8 12 36 6 36 -2 0 -4 -1 -5 -2z"/>
<path d="M2205 1240 c3 -5 8 -10 11 -10 2 0 4 5 4 10 0 6 -5 10 -11 10 -5 0
-7 -4 -4 -10z"/>
<path d="M2276 1233 c-6 -14 -5 -15 5 -6 7 7 10 15 7 18 -3 3 -9 -2 -12 -12z"/>
<path d="M2373 1229 c-2 -23 3 -25 10 -4 4 8 3 16 -1 19 -4 3 -9 -4 -9 -15z"/>
<path d="M2710 1219 c0 -5 5 -7 10 -4 6 3 10 8 10 11 0 2 -4 4 -10 4 -5 0 -10
-5 -10 -11z"/>
<path d="M2192 1200 c0 -14 2 -19 5 -12 2 6 2 18 0 25 -3 6 -5 1 -5 -13z"/>
<path d="M2115 1381 c10 -9 44 -11 49 -3 3 5 -8 8 -24 8 -17 0 -27 -2 -25 -5z"/>
<path d="M2071 1366 c-10 -11 -9 -14 1 -12 14 2 23 15 15 22 -2 2 -10 -2 -16
-10z"/>
<path d="M1146 1042 c-2 -4 4 -8 14 -8 10 0 16 4 14 8 -3 4 -9 8 -14 8 -5 0
-11 -4 -14 -8z"/>
<path d="M1335 1031 c-3 -5 -2 -12 3 -15 5 -3 9 1 9 9 0 17 -3 19 -12 6z"/>
<path d="M1235 1019 c-3 -4 2 -6 10 -5 21 3 28 13 10 13 -9 0 -18 -4 -20 -8z"/>
<path d="M2534 1016 c1 -8 5 -18 8 -22 4 -3 5 1 4 10 -1 8 -5 18 -8 22 -4 3
-5 -1 -4 -10z"/>
<path d="M2619 1028 c-5 -18 -6 -38 -1 -34 7 8 12 36 6 36 -2 0 -4 -1 -5 -2z"/>
<path d="M2674 1022 c4 -3 14 -7 22 -8 9 -1 13 0 10 4 -4 3 -14 7 -22 8 -9 1
-13 0 -10 -4z"/>
<path d="M1795 1009 c-4 -6 -5 -12 -2 -15 2 -3 7 2 10 11 7 17 1 20 -8 4z"/>
<path d="M1910 1016 c0 -2 8 -10 18 -17 15 -13 16 -12 3 4 -13 16 -21 21 -21
13z"/>
<path d="M2060 1009 c0 -5 -4 -7 -10 -4 -14 9 -12 -1 3 -13 10 -8 13 -6 14 9
1 10 0 19 -3 19 -2 0 -4 -5 -4 -11z"/>
<path d="M2118 1010 c13 -15 65 -23 57 -9 -3 4 -13 6 -23 4 -9 -1 -24 2 -32 8
-12 9 -13 9 -2 -3z"/>
<path d="M2293 1005 c0 -8 4 -12 9 -9 5 3 6 10 3 15 -9 13 -12 11 -12 -6z"/>
<path d="M1454 996 c1 -8 5 -18 8 -22 4 -3 5 1 4 10 -1 8 -5 18 -8 22 -4 3 -5
-1 -4 -10z"/>
<path d="M1579 1008 c-5 -18 -6 -38 -1 -34 7 8 12 36 6 36 -2 0 -4 -1 -5 -2z"/>
<path d="M1853 993 c0 -9 4 -10 14 -2 7 6 13 12 13 14 0 1 -6 2 -13 2 -8 0
-14 -6 -14 -14z"/>
<path d="M2216 998 c3 -5 10 -6 15 -3 13 9 11 12 -6 12 -8 0 -12 -4 -9 -9z"/>
<path d="M1366 982 c-3 -5 1 -9 9 -9 8 0 12 4 9 9 -3 4 -7 8 -9 8 -2 0 -6 -4
-9 -8z"/>
<path d="M1416 982 c-3 -5 1 -9 9 -9 8 0 12 4 9 9 -3 4 -7 8 -9 8 -2 0 -6 -4
-9 -8z"/>
<path d="M1610 980 c0 -5 5 -10 11 -10 5 0 7 5 4 10 -3 6 -8 10 -11 10 -2 0
-4 -4 -4 -10z"/>
<path d="M1907 979 c7 -7 15 -10 18 -7 3 3 -2 9 -12 12 -14 6 -15 5 -6 -5z"/>
<path d="M1953 968 c-2 -18 0 -20 7 -8 12 18 13 30 2 30 -4 0 -9 -10 -9 -22z"/>
<path d="M2475 979 c-3 -4 2 -6 10 -5 21 3 28 13 10 13 -9 0 -18 -4 -20 -8z"/>
<path d="M2133 965 c0 -8 4 -12 9 -9 5 3 6 10 3 15 -9 13 -12 11 -12 -6z"/>
<path d="M2179 978 c-5 -18 -6 -38 -1 -34 7 8 12 36 6 36 -2 0 -4 -1 -5 -2z"/>
<path d="M1506 962 c-2 -4 4 -8 14 -8 10 0 16 4 14 8 -3 4 -9 8 -14 8 -5 0
-11 -4 -14 -8z"/>
<path d="M1776 958 c3 -5 10 -6 15 -3 13 9 11 12 -6 12 -8 0 -12 -4 -9 -9z"/>
<path d="M1864 962 c4 -3 14 -7 22 -8 9 -1 13 0 10 4 -4 3 -14 7 -22 8 -9 1
-13 0 -10 -4z"/>
<path d="M1826 942 c-2 -4 4 -8 14 -8 10 0 16 4 14 8 -3 4 -9 8 -14 8 -5 0
-11 -4 -14 -8z"/>
<path d="M3090 3281 c0 -6 4 -13 10 -16 6 -3 7 1 4 9 -7 18 -14 21 -14 7z"/>
<path d="M3430 1679 c0 -5 5 -7 10 -4 6 3 10 8 10 11 0 2 -4 4 -10 4 -5 0 -10
-5 -10 -11z"/>
<path d="M3350 1416 c0 -2 8 -10 18 -17 15 -13 16 -12 3 4 -13 16 -21 21 -21
13z"/>
</g>
</svg>
